<svg xmlns="http://www.w3.org/2000/svg" viewBox="0 0 99.84 98.85"><g id="Layer_2" data-name="Layer 2"><g id="Layer_1-2" data-name="Layer 1"><path d="M48,58.67l12.06-12a.71.71,0,0,0,.16-.39V6.76A6.7,6.7,0,0,0,55,.14a6.59,6.59,0,0,0-8,6.44v51.7A.54.54,0,0,0,48,58.67Z"/><path d="M66.64,40l12.21-12.2V15.28a6.69,6.69,0,0,0-5.19-6.62,6.59,6.59,0,0,0-8,6.43V39.57A.55.55,0,0,0,66.64,40Z"/><path d="M77.88,64.91,45,97.87a.57.57,0,0,0,.4,1H67A11.9,11.9,0,0,0,78.85,87V65.31A.57.57,0,0,0,77.88,64.91Z"/><path d="M34.62,71.33a.53.53,0,0,0,.77,0l6-6,.16-.39V14A6.57,6.57,0,0,0,35,7.38h0A6.57,6.57,0,0,0,28.43,14V64.9l.16.39Z"/><path d="M99.68,33.32l-2.17-2.17a9.38,9.38,0,0,0-13.27,0L35.41,80.29a.56.56,0,0,1-.78,0L15.58,61.15a9.35,9.35,0,0,0-13.22,0l-2.2,2.2a.55.55,0,0,0,0,.77L34.63,98.68a.54.54,0,0,0,.78,0L99.68,34.1A.54.54,0,0,0,99.68,33.32Z"/></g></g></svg>