<?xml version="1.0" encoding="UTF-8"?><svg id="Layer_2" xmlns="http://www.w3.org/2000/svg" viewBox="0 0 245 247"><defs><style>.cls-1{fill:#ebecb9;}.cls-2{fill:#fff;}.cls-3{fill:#ffb400;}.cls-4,.cls-5{fill:#fcd757;}.cls-6{fill:#ff6847;}.cls-7{fill:#9a275a;}.cls-8{fill:#1e90ff;}.cls-9,.cls-10{fill:#218380;}.cls-11{fill:#55af82;}.cls-11,.cls-10,.cls-12,.cls-5{fill-rule:evenodd;}.cls-12{fill:#ed4d4d;}</style></defs><g id="Layer_1-2"><g><rect class="cls-6" width="245" height="247" rx="35.74" ry="35.74"/><g><g><path class="cls-5" d="M97.1,50.83h50.45c3.68,0,6.8,3.4,6.8,7.37v54.42c0,3.97-3.12,7.37-6.8,7.37h-50.45c-3.68,0-6.8-3.4-6.8-7.37V58.2c0-4.25,3.12-7.37,6.8-7.37Z"/><path class="cls-3" d="M147.55,121.51h-50.45c-4.33,0-7.98-3.91-7.98-8.55,0-.65,.53-1.18,1.18-1.18s1.18,.53,1.18,1.18c0,3.3,2.63,6.19,5.62,6.19h50.45c3,0,5.62-2.89,5.62-6.19,0-.65,.53-1.18,1.18-1.18s1.18,.53,1.18,1.18c0,4.63-3.65,8.55-7.98,8.55Z"/><path class="cls-3" d="M154.36,101.84c-.65,0-1.18-.53-1.18-1.18v-35.78c0-.65,.53-1.18,1.18-1.18s1.18,.53,1.18,1.18v35.78c0,.65-.53,1.18-1.18,1.18Z"/><path class="cls-3" d="M90.3,73.5c-.65,0-1.18-.53-1.18-1.18v-13.78c0-4.79,3.5-8.55,7.98-8.55h50.45c4.33,0,7.98,3.91,7.98,8.55,0,.65-.53,1.18-1.18,1.18s-1.18-.53-1.18-1.18c0-3.3-2.63-6.19-5.62-6.19h-50.45c-3.15,0-5.62,2.72-5.62,6.19v13.78c0,.65-.53,1.18-1.18,1.18Z"/><path class="cls-2" d="M139.9,102.13c.28,.85,.28,1.42,.57,1.7,0,.28,0,.85-.28,.85-.57,.28-.85,.28-1.42,.28h-4.82c-.57,0-1.13,0-1.42-.28-.28,0-.57-.28-.57-.28,0-.28-.28-.28-.28-.57l-2.55-7.94h-14.74l-2.55,7.65c0,.28-.28,.57-.28,.85s-.28,.28-.57,.57-.57,.28-1.13,.28h-4.25c-.57,0-.85-.28-1.13-.57-.28-.28-.28-.57-.28-.85s.28-.85,.57-1.7l12.19-34.86c0-.28,.28-.57,.28-.85q.28-.28,.85-.57c.28,0,.85-.28,1.42-.28h5.39c.85,0,1.13,0,1.7,.28s.57,.28,.85,.57c.28,.28,.28,.57,.57,.85l11.9,34.86h0Zm-18.14-28.91h0l-5.39,16.72h11.05c-.28,0-5.67-16.72-5.67-16.72Z"/><path class="cls-3" d="M90.3,108.66c-.65,0-1.18-.53-1.18-1.18v-22.75c0-.65,.53-1.18,1.18-1.18s1.18,.53,1.18,1.18v22.75c0,.65-.53,1.18-1.18,1.18Z"/></g><g><path class="cls-11" d="M61.26,126.67h50.45c3.68,0,6.8,3.4,6.8,7.37v54.42c0,3.97-3.12,7.37-6.8,7.37H61.26c-3.68,0-6.8-3.4-6.8-7.37v-54.42c0-4.25,3.12-7.37,6.8-7.37Z"/><path class="cls-9" d="M61.26,125.48h50.45c4.33,0,7.98,3.91,7.98,8.55,0,.65-.53,1.18-1.18,1.18s-1.18-.53-1.18-1.18c0-3.3-2.63-6.19-5.62-6.19H61.26c-3,0-5.62,2.89-5.62,6.19,0,.65-.53,1.18-1.18,1.18s-1.18-.53-1.18-1.18c0-4.63,3.65-8.55,7.98-8.55Z"/><g><path class="cls-10" d="M54.45,182.1v-35.78"/><path class="cls-9" d="M54.46,145.14c.65,0,1.18,.53,1.18,1.18v35.78c0,.65-.53,1.18-1.18,1.18s-1.18-.53-1.18-1.18v-35.78c0-.65,.53-1.18,1.18-1.18Z"/></g><path class="cls-9" d="M118.51,173.48c.65,0,1.18,.53,1.18,1.18v13.78c0,4.79-3.5,8.55-7.98,8.55H61.26c-4.33,0-7.98-3.91-7.98-8.55,0-.65,.53-1.18,1.18-1.18s1.18,.53,1.18,1.18c0,3.3,2.63,6.19,5.62,6.19h50.45c3.15,0,5.62-2.72,5.62-6.19v-13.78c0-.65,.53-1.18,1.18-1.18Z"/><g><path class="cls-10" d="M118.51,139.5v22.75"/><path class="cls-9" d="M118.51,138.32c.65,0,1.18,.53,1.18,1.18v22.75c0,.65-.53,1.18-1.18,1.18s-1.18-.53-1.18-1.18v-22.75c0-.65,.53-1.18,1.18-1.18Z"/></g><path class="cls-2" d="M101.27,169.33c0,1.42-.28,2.55-.57,3.68-.28,1.13-.85,2.27-1.7,3.12-.57,.85-1.42,1.7-2.55,2.27-.85,.57-1.98,1.13-3.12,1.42-1.13,.28-2.27,.57-3.68,.85s-2.83,.28-4.25,.28h-10.2c-.57,0-1.13-.28-1.7-.57-.57-.28-.57-1.13-.57-1.98v-34.3c0-.85,.28-1.42,.57-1.98,.57-.28,1.13-.57,1.7-.57h9.92c2.27,0,4.53,.28,6.24,.57,1.7,.28,3.12,1.13,4.25,1.7,1.13,.85,1.98,1.98,2.55,3.12s.85,2.83,.85,4.53c0,.85,0,1.98-.28,2.55-.28,.85-.57,1.7-1.13,2.27s-1.13,1.42-1.7,1.7c-.57,.57-1.42,.85-2.27,1.13,1.13,.28,2.27,.57,3.12,1.13s1.7,1.13,2.55,1.98,1.13,1.7,1.7,2.83c.28,1.42,.28,2.83,.28,4.25h0Zm-10.2-16.72c0-.85,0-1.42-.28-2.27-.28-.57-.57-1.13-1.13-1.7-.57-.28-1.13-.85-1.7-.85-.85-.28-1.7-.28-2.83-.28h-4.25v10.2h4.53c1.13,0,1.98,0,2.83-.28,.57-.28,1.13-.57,1.7-1.13,.57-.57,.85-1.13,1.13-1.7v-1.98h0Zm1.98,17.01c0-.85-.28-1.7-.57-2.55-.28-.85-.85-1.42-1.42-1.7s-1.42-.85-2.27-1.13-1.98-.28-3.68-.28h-4.25v11.34h5.67c1.13,0,1.98,0,2.83-.28s1.42-.57,1.98-1.13,.85-1.13,1.42-1.7c.28-1.13,.28-1.7,.28-2.55h0Z"/></g><g><path class="cls-12" d="M133.29,126.69h50.45c3.68,0,6.8,3.4,6.8,7.37v54.42c0,3.97-3.12,7.37-6.8,7.37h-50.45c-3.68,0-6.8-3.4-6.8-7.37v-54.42c0-4.25,3.12-7.37,6.8-7.37Z"/><path class="cls-7" d="M183.74,197h-50.45c-4.33,0-7.98-3.91-7.98-8.55,0-.65,.53-1.18,1.18-1.18s1.18,.53,1.18,1.18c0,3.3,2.63,6.19,5.62,6.19h50.45c3,0,5.62-2.89,5.62-6.19,0-.65,.53-1.18,1.18-1.18s1.18,.53,1.18,1.18c0,4.63-3.65,8.55-7.98,8.55Z"/><path class="cls-7" d="M190.54,177.34c-.65,0-1.18-.53-1.18-1.18v-35.78c0-.65,.53-1.18,1.18-1.18s1.18,.53,1.18,1.18v35.78c0,.65-.53,1.18-1.18,1.18Z"/><path class="cls-7" d="M126.49,149c-.65,0-1.18-.53-1.18-1.18v-13.78c0-4.79,3.5-8.55,7.98-8.55h50.45c4.33,0,7.98,3.91,7.98,8.55,0,.65-.53,1.18-1.18,1.18s-1.18-.53-1.18-1.18c0-3.3-2.63-6.19-5.62-6.19h-50.45c-3.15,0-5.62,2.72-5.62,6.19v13.78c0,.65-.53,1.18-1.18,1.18Z"/><path class="cls-7" d="M126.49,184.16c-.65,0-1.18-.53-1.18-1.18v-22.75c0-.65,.53-1.18,1.18-1.18s1.18,.53,1.18,1.18v22.75c0,.65-.53,1.18-1.18,1.18Z"/><path class="cls-2" d="M172.97,174.87v2.27c0,.28,0,.57-.28,.57,0,.28-.28,.28-.57,.57-.28,.28-.57,.57-1.42,.85-.57,.28-1.42,.57-2.27,1.13-.85,.28-1.98,.57-3.12,.85s-2.55,.28-3.97,.28c-2.55,0-5.1-.28-7.37-1.13-2.27-.85-3.97-1.98-5.39-3.68s-2.55-3.68-3.4-6.24c-.85-2.55-1.13-5.39-1.13-8.5,0-3.4,.57-6.24,1.42-8.79s2.27-4.82,3.68-6.52c1.7-1.7,3.4-3.12,5.67-3.97s4.82-1.42,7.37-1.42c1.13,0,2.27,0,3.12,.28,1.13,.28,1.98,.28,2.83,.85,.85,.28,1.7,.57,2.27,1.13s1.13,.85,1.42,.85l.57,.57s.28,.28,.28,.57v3.97c0,.28,0,.85-.28,1.13,0,.28-.28,.57-.28,.57,0,0-.28,.28-.57,.28s-.57-.28-1.13-.57c-.57-.28-1.13-.85-1.7-1.13-.85-.57-1.7-.85-2.55-1.13-1.13-.28-2.27-.57-3.68-.57s-2.83,.28-4.25,.85c-1.13,.57-2.27,1.42-3.12,2.83-.85,1.13-1.42,2.55-1.98,4.25s-.57,3.68-.57,5.67c0,2.27,.28,4.25,.85,5.95,.57,1.7,1.13,3.12,1.98,4.25,.85,1.13,1.98,1.98,3.12,2.55s2.55,.85,4.25,.85c1.42,0,2.55-.28,3.68-.57,1.13-.28,1.98-.57,2.55-1.13,.85-.28,1.42-.85,1.7-1.13,.57-.28,.85-.57,1.13-.57h.57s.28,.28,.28,.57,0,.57,.28,1.13c0,.28,0,.85,0,1.42h0Z"/></g></g><circle class="cls-7" cx="35.22" cy="66.74" r="2.09" transform="translate(-39.63 57.2) rotate(-54.91)"/><path class="cls-4" d="M61.63,95.54c-1.15-.64-2.23-.92-3.32-.73h0c-1.09,.19-2.02,.82-2.95,1.92-.48,.46-1.21,.59-1.78,.03-.46-.48-.56-1.03-.18-1.56,.72-1.25,.89-2.41,.73-3.32-.19-1.09-.82-2.02-1.82-2.87-.64-.45-.69-1.29-.21-1.75,.38-.53,1.03-.56,1.64-.29,1.15,.64,2.23,.92,3.32,.73h0c1.09-.19,2.02-.82,2.95-1.92,.48-.46,1.21-.59,1.78-.03,.46,.48,.56,1.03,.18,1.56-.72,1.25-.89,2.41-.73,3.32,.19,1.09,.82,2.02,1.82,2.87,.46,.48,.59,1.21,.14,1.85-.41,.35-1.14,.48-1.56,.18Z"/><path class="cls-1" d="M192.68,53.19l-.86-4.92c-.16-.91,.44-1.77,1.43-2.03l4.74-.83c.91-.16,1.77,.44,2.03,1.43l.83,4.74c.16,.91-.44,1.77-1.43,2.03l-4.74,.83c-.99,.27-1.84-.34-2-1.25Z"/><path class="cls-8" d="M155.23,220.2l.7,3.98c.13,.74-.36,1.43-1.16,1.65l-3.84,.67c-.74,.13-1.43-.36-1.65-1.16l-.67-3.84c-.13-.74,.36-1.43,1.16-1.65l3.84-.67c.8-.22,1.49,.27,1.62,1.01Z"/></g></g></svg>