<?xml version="1.0" encoding="UTF-8"?><svg id="Layer_2" xmlns="http://www.w3.org/2000/svg" viewBox="0 0 245 247"><defs><style>.cls-1{fill:#ebecb9;}.cls-2{fill:#ed4d4d;}.cls-3{fill:#ffb400;}.cls-4{fill:#fcd757;}.cls-5{fill:#9a275a;}.cls-6{fill:#1e90ff;}.cls-7,.cls-8{fill:#218380;}.cls-9,.cls-10{fill:#55af82;}.cls-10,.cls-8,.cls-11{fill-rule:evenodd;}.cls-11{fill:#ff6847;}</style></defs><g id="Layer_1-2"><g><rect class="cls-4" width="245" height="247" rx="35.74" ry="35.74"/><g><path class="cls-10" d="M101.65,62l4.58,.92,21.18,4.05c1.57,.26,2.61,1.83,2.35,3.4l-20.4,105.91c-.26,1.57-1.83,2.61-3.4,2.35l-25.89-4.97c-1.57-.26-2.61-1.83-2.35-3.4l20.4-105.91c.39-1.57,1.96-2.61,3.53-2.35h0Z"/><polygon class="cls-8" points="128.33 77.96 121.53 113.26 90.02 107.24 96.82 71.81 128.33 77.96"/><path class="cls-2" d="M71.32,110.51c-.39,1.96-2.22,3.27-4.18,2.88s-3.27-2.22-2.88-4.18c.78-4.58,3.01-8.63,6.01-11.77s7.06-5.36,11.38-6.15c1.96-.39,3.79,1.05,4.18,2.88,.39,1.96-1.05,3.79-2.88,4.18-2.88,.52-5.49,1.96-7.45,4.05-2.09,2.22-3.66,4.97-4.18,8.11h0Z"/><path class="cls-11" d="M68.31,177.32c-5.23,0-9.81,4.05-16.87-1.05-14.91-11.38-30.2-47.33-13.21-62.76,4.58-4.18,10.85-6.54,17.65-6.01,3.79,.26,5.62,1.57,8.76,2.35,2.09,.52,5.1,.52,7.19,0,3.14-.78,4.97-1.96,8.76-2.35,6.8-.52,13.07,1.83,17.65,6.01,17,15.43,1.7,51.52-13.21,62.76-6.93,5.1-11.64,1.05-16.74,1.05h0Z"/><path class="cls-2" d="M68.31,111.3c-.65,0-1.05-.52-1.05-1.05s.52-1.05,1.05-1.05c1.18,0,2.35-.13,3.53-.39,1.31-.26,2.61-.65,3.92-1.31h.13c4.97-1.7,9.41-1.7,13.34-.39,4.58,1.44,8.24,4.31,10.98,7.98,2.88,3.92,4.71,8.37,5.49,13.07,.92,5.23,.65,10.72-.39,15.82-1.18,6.01-5.1,15.56-10.33,23.14-4.05,5.88-8.89,10.85-13.99,12.42h0c-1.05,.26-2.09,.39-3.27,.39s-2.35-.13-3.66-.52h-.13c-.78-.26-1.7-.52-2.75-.65-.92-.13-1.96-.26-2.88-.26-.65,0-1.05-.52-1.05-1.05,0-.65,.52-1.05,1.05-1.05,1.18,0,2.22,.13,3.4,.39,.92,.13,1.96,.52,2.88,.78h0c1.18,.26,2.22,.39,3.27,.39,.92,0,1.83-.13,2.61-.39h0c4.58-1.31,9.02-5.88,12.81-11.51,5.1-7.45,8.76-16.61,9.94-22.36,1.05-4.97,1.18-10.07,.39-15.04-.78-4.31-2.35-8.5-5.1-12.16-2.48-3.27-5.88-6.01-9.94-7.19-3.53-1.05-7.58-1.18-12.03,.39-1.44,.65-2.88,1.05-4.18,1.44-1.44,0-2.75,.13-4.05,.13h0Z"/><path class="cls-2" d="M68.31,109.07c.65,0,1.05,.52,1.05,1.05,0,.65-.52,1.05-1.05,1.05-1.31,0-2.61-.13-4.05-.52-1.31-.26-2.75-.78-4.18-1.44-4.58-1.57-8.89-1.57-12.55-.39-4.18,1.18-7.71,3.79-10.2,7.06-.39,.52-1.05,.52-1.44,.26-.52-.39-.52-1.05-.26-1.44,2.75-3.66,6.67-6.54,11.38-7.84,4.18-1.18,8.89-1.18,13.86,.52h.13c1.31,.52,2.61,1.05,3.92,1.31,1.05,.26,2.22,.39,3.4,.39Z"/><path class="cls-10" d="M168.21,48.41h24.32c1.7,0,3.14,1.57,3.14,3.53v123.03c0,1.96-1.44,3.53-3.14,3.53h-24.32c-1.7,0-3.14-1.57-3.14-3.53V51.94c0-1.96,1.44-3.53,3.14-3.53Z"/><rect class="cls-7" x="165.07" y="68.8" width="30.6" height="43.15"/><path class="cls-8" d="M131.6,77.96h29.55c2.09,0,3.92,1.18,3.92,2.75v95.19c0,1.57-1.7,2.75-3.92,2.75h-29.55c-2.09,0-3.92-1.18-3.92-2.75V80.7c0-1.57,1.7-2.75,3.92-2.75Z"/><rect class="cls-7" x="127.67" y="77.96" width="37.39" height="49.42"/><rect class="cls-9" x="127.67" y="94.95" width="37.39" height="21.05"/><rect class="cls-7" x="165.07" y="122.02" width="30.6" height="10.98"/><circle class="cls-1" cx="180.37" cy="90.38" r="8.76"/><circle class="cls-2" cx="212.14" cy="157.45" r="2.09"/><circle class="cls-1" cx="146.37" cy="155.36" r="11.51"/><path class="cls-3" d="M41.25,83.19c-.13-1.31-.52-2.35-1.31-3.14h0c-.78-.78-1.83-1.18-3.27-1.31-.65-.13-1.18-.65-1.05-1.44,.13-.65,.52-1.05,1.18-1.05,1.44-.13,2.48-.65,3.14-1.31,.78-.78,1.18-1.83,1.31-3.14,0-.78,.65-1.31,1.31-1.18,.65,0,1.05,.52,1.18,1.18,.13,1.31,.52,2.35,1.31,3.14h0c.78,.78,1.83,1.18,3.27,1.31,.65,.13,1.18,.65,1.05,1.44-.13,.65-.52,1.05-1.18,1.05-1.44,.13-2.48,.65-3.14,1.31-.78,.78-1.18,1.83-1.31,3.14-.13,.65-.65,1.18-1.44,1.18-.52-.13-1.05-.65-1.05-1.18Z"/><path class="cls-6" d="M148.99,48.23l-3.53,3.53c-.65,.65-1.7,.65-2.48,0l-3.4-3.4c-.65-.65-.65-1.7,0-2.48l3.4-3.4c.65-.65,1.7-.65,2.48,0l3.4,3.4c.78,.65,.78,1.7,.13,2.35Z"/><path class="cls-5" d="M113.64,201.75l-2.86,2.86c-.53,.53-1.38,.53-2.01,0l-2.75-2.75c-.53-.53-.53-1.38,0-2.01l2.75-2.75c.53-.53,1.38-.53,2.01,0l2.75,2.75c.64,.53,.64,1.38,.11,1.91Z"/></g></g></g></svg>