<?xml version="1.0" encoding="UTF-8"?><svg id="Layer_2" xmlns="http://www.w3.org/2000/svg" viewBox="0 0 245 247"><defs><style>.cls-1,.cls-2{stroke:#71bf43;}.cls-1,.cls-2,.cls-3,.cls-4{stroke-linecap:round;stroke-linejoin:round;stroke-width:2.5px;}.cls-1,.cls-5{fill:#ff6847;}.cls-2,.cls-3,.cls-4{fill:none;}.cls-3{stroke:#fcd757;}.cls-6,.cls-7{fill:#ebecb9;}.cls-8{fill:#f0f0f0;}.cls-9{fill:#ed4d4d;}.cls-10{fill:#ffb400;}.cls-11{fill:#fcd757;}.cls-12{fill:#71bf43;}.cls-13{fill:#9a275a;}.cls-14{fill:#218380;}.cls-15{fill:#55af82;}.cls-16{fill:#74aabe;}.cls-4{stroke:#218380;}.cls-4,.cls-7{fill-rule:evenodd;}</style></defs><g id="Layer_1-2"><g><rect class="cls-15" width="245" height="247" rx="35.74" ry="35.74"/><g><g><path class="cls-10" d="M156.24,98.05v.73c0,.45-.36,.81-.81,.81H89.89c-.45,0-.81-.36-.81-.81v-.73c0-.45-.36-.81-.81-.81H40.28c-.45,0-.81,.36-.81,.81v.73c0,.45,.36,.81,.81,.81h0c.45,0,.81,.36,.81,.81v80.82c0,.45,.36,.81,.81,.81H203.42c.45,0,.81-.36,.81-.81V100.4c0-.45,.36-.81,.81-.81h0c.45,0,.81-.36,.81-.81v-.73c0-.45-.36-.81-.81-.81h-47.99c-.45,0-.81,.36-.81,.81Z"/><path class="cls-11" d="M156.81,93.05h-8.84c-.12,0-.24-.05-.33-.13l-22.97-20.79c-.1-.09-.16-.23-.16-.36v-19.26c0-.27-.22-.49-.49-.49h0c-1.81,0-3.28,1.47-3.28,3.28v16.53c0,.14-.06,.27-.16,.36l-22.9,20.73c-.09,.08-.21,.13-.33,.13h-8.83c-.27,0-.49,.22-.49,.49v87.99c0,.27,.22,.49,.49,.49h11.34v-30.12c0-.73,.59-1.32,1.32-1.32s1.32,.59,1.32,1.32v30.12h18.44c.27,0,.49-.22,.49-.49v-53.6c0-.73,.59-1.32,1.32-1.32s1.32,.59,1.32,1.32v53.6c0,.27,.22,.49,.49,.49h18.29v-10.64c0-.73,.59-1.32,1.32-1.32s1.32,.59,1.32,1.32v10.64h11.34c.27,0,.49-.22,.49-.49V93.54c0-.27-.22-.49-.49-.49Z"/><path class="cls-6" d="M113.17,128.17h18.98c6.62,0,12,5.38,12,12v41.86h-42.98v-41.86c0-6.62,5.38-12,12-12Z"/><rect class="cls-5" x="120.69" y="49.83" width="22.37" height="14.36" rx="4.38" ry="4.38"/><g><rect class="cls-8" x="49.71" y="110.68" width="10.57" height="14.48"/><rect class="cls-16" x="51.07" y="112.03" width="7.86" height="11.76"/><rect class="cls-8" x="68.77" y="110.68" width="10.57" height="14.48"/><rect class="cls-16" x="70.13" y="112.03" width="7.86" height="11.76"/><rect class="cls-8" x="49.71" y="133.63" width="10.57" height="14.48"/><rect class="cls-16" x="51.07" y="134.99" width="7.86" height="11.76"/><rect class="cls-8" x="68.77" y="133.63" width="10.57" height="14.48"/><rect class="cls-16" x="70.13" y="134.99" width="7.86" height="11.76"/><path class="cls-6" d="M50.11,113.06c0-1.49,1.22-2.7,2.7-2.7h5.81c1.49,0,2.7,1.22,2.7,2.7v9.39c0,1.49-1.22,2.7-2.7,2.7h-5.81c-1.49,0-2.7-1.22-2.7-2.7v-4.18"/><path class="cls-11" d="M58.62,126.41h-5.81c-2.18,0-3.95-1.77-3.95-3.95v-4.18c0-.69,.56-1.25,1.25-1.25s1.25,.56,1.25,1.25v4.18c0,.8,.65,1.45,1.45,1.45h5.81c.8,0,1.45-.65,1.45-1.45v-9.39c0-.8-.65-1.45-1.45-1.45h-5.81c-.8,0-1.45,.65-1.45,1.45,0,.69-.56,1.25-1.25,1.25s-1.25-.56-1.25-1.25c0-2.18,1.77-3.95,3.95-3.95h5.81c2.18,0,3.95,1.77,3.95,3.95v9.39c0,2.18-1.77,3.95-3.95,3.95Z"/><path class="cls-6" d="M68.85,113.06c0-1.49,1.22-2.7,2.7-2.7h5.81c1.49,0,2.7,1.22,2.7,2.7v9.39c0,1.49-1.22,2.7-2.7,2.7h-5.81c-1.49,0-2.7-1.22-2.7-2.7v-4.18"/><path class="cls-11" d="M77.36,126.41h-5.81c-2.18,0-3.95-1.77-3.95-3.95v-4.18c0-.69,.56-1.25,1.25-1.25s1.25,.56,1.25,1.25v4.18c0,.8,.65,1.45,1.45,1.45h5.81c.8,0,1.45-.65,1.45-1.45v-9.39c0-.8-.65-1.45-1.45-1.45h-5.81c-.8,0-1.45,.65-1.45,1.45,0,.69-.56,1.25-1.25,1.25s-1.25-.56-1.25-1.25c0-2.18,1.77-3.95,3.95-3.95h5.81c2.18,0,3.95,1.77,3.95,3.95v9.39c0,2.18-1.77,3.95-3.95,3.95Z"/><path class="cls-6" d="M50.11,136.17c0-1.49,1.22-2.7,2.7-2.7h5.81c1.49,0,2.7,1.22,2.7,2.7v9.39c0,1.49-1.22,2.7-2.7,2.7h-5.81c-1.49,0-2.7-1.22-2.7-2.7v-4.18"/><path class="cls-11" d="M58.62,149.52h-5.81c-2.18,0-3.95-1.77-3.95-3.95v-4.18c0-.69,.56-1.25,1.25-1.25s1.25,.56,1.25,1.25v4.18c0,.8,.65,1.45,1.45,1.45h5.81c.8,0,1.45-.65,1.45-1.45v-9.39c0-.8-.65-1.45-1.45-1.45h-5.81c-.8,0-1.45,.65-1.45,1.45,0,.69-.56,1.25-1.25,1.25s-1.25-.56-1.25-1.25c0-2.18,1.77-3.95,3.95-3.95h5.81c2.18,0,3.95,1.77,3.95,3.95v9.39c0,2.18-1.77,3.95-3.95,3.95Z"/><path class="cls-6" d="M68.85,136.17c0-1.49,1.22-2.7,2.7-2.7h5.81c1.49,0,2.7,1.22,2.7,2.7v9.39c0,1.49-1.22,2.7-2.7,2.7h-5.81c-1.49,0-2.7-1.22-2.7-2.7v-4.18"/><path class="cls-11" d="M77.36,149.52h-5.81c-2.18,0-3.95-1.77-3.95-3.95v-4.18c0-.69,.56-1.25,1.25-1.25s1.25,.56,1.25,1.25v4.18c0,.8,.65,1.45,1.45,1.45h5.81c.8,0,1.45-.65,1.45-1.45v-9.39c0-.8-.65-1.45-1.45-1.45h-5.81c-.8,0-1.45,.65-1.45,1.45,0,.69-.56,1.25-1.25,1.25s-1.25-.56-1.25-1.25c0-2.18,1.77-3.95,3.95-3.95h5.81c2.18,0,3.95,1.77,3.95,3.95v9.39c0,2.18-1.77,3.95-3.95,3.95Z"/><path class="cls-6" d="M50.11,159.29c0-1.49,1.22-2.7,2.7-2.7h5.81c1.49,0,2.7,1.22,2.7,2.7v9.39c0,1.49-1.22,2.7-2.7,2.7h-5.81c-1.49,0-2.7-1.22-2.7-2.7v-4.18"/><path class="cls-11" d="M58.62,172.64h-5.81c-2.18,0-3.95-1.77-3.95-3.95v-4.18c0-.69,.56-1.25,1.25-1.25s1.25,.56,1.25,1.25v4.18c0,.8,.65,1.45,1.45,1.45h5.81c.8,0,1.45-.65,1.45-1.45v-9.39c0-.8-.65-1.45-1.45-1.45h-5.81c-.8,0-1.45,.65-1.45,1.45,0,.69-.56,1.25-1.25,1.25s-1.25-.56-1.25-1.25c0-2.18,1.77-3.96,3.95-3.96h5.81c2.18,0,3.95,1.77,3.95,3.96v9.39c0,2.18-1.77,3.95-3.95,3.95Z"/><path class="cls-6" d="M68.13,159.29c0-1.49,1.22-2.7,2.7-2.7h5.81c1.49,0,2.7,1.22,2.7,2.7v9.39c0,1.49-1.22,2.7-2.7,2.7h-5.81c-1.49,0-2.7-1.22-2.7-2.7v-4.18"/><path class="cls-11" d="M76.64,172.64h-5.8c-2.18,0-3.96-1.77-3.96-3.95v-4.18c0-.69,.56-1.25,1.25-1.25s1.25,.56,1.25,1.25v4.18c0,.8,.65,1.45,1.45,1.45h5.8c.8,0,1.45-.65,1.45-1.45v-9.39c0-.8-.65-1.45-1.45-1.45h-5.8c-.8,0-1.45,.65-1.45,1.45,0,.69-.56,1.25-1.25,1.25s-1.25-.56-1.25-1.25c0-2.18,1.77-3.96,3.96-3.96h5.8c2.18,0,3.96,1.77,3.96,3.96v9.39c0,2.18-1.77,3.95-3.96,3.95Z"/></g><g><rect class="cls-8" x="165.65" y="110.68" width="10.57" height="14.48"/><rect class="cls-16" x="167.01" y="112.03" width="7.86" height="11.76"/><rect class="cls-8" x="184.71" y="110.68" width="10.57" height="14.48"/><rect class="cls-16" x="186.06" y="112.03" width="7.86" height="11.76"/><rect class="cls-8" x="165.65" y="133.63" width="10.57" height="14.48"/><rect class="cls-16" x="167.01" y="134.99" width="7.86" height="11.76"/><rect class="cls-8" x="184.71" y="133.63" width="10.57" height="14.48"/><rect class="cls-16" x="186.06" y="134.99" width="7.86" height="11.76"/><path class="cls-6" d="M195.22,168.68c0,1.49-1.22,2.7-2.7,2.7h-5.81c-1.49,0-2.7-1.22-2.7-2.7v-9.39c0-1.49,1.22-2.7,2.7-2.7h5.81c1.49,0,2.7,1.22,2.7,2.7v4.18"/><path class="cls-11" d="M192.51,172.64h-5.81c-2.18,0-3.95-1.77-3.95-3.95v-9.39c0-2.18,1.77-3.96,3.95-3.96h5.81c2.18,0,3.95,1.77,3.95,3.96v4.18c0,.69-.56,1.25-1.25,1.25s-1.25-.56-1.25-1.25v-4.18c0-.8-.65-1.45-1.45-1.45h-5.81c-.8,0-1.45,.65-1.45,1.45v9.39c0,.8,.65,1.45,1.45,1.45h5.81c.8,0,1.45-.65,1.45-1.45,0-.69,.56-1.25,1.25-1.25s1.25,.56,1.25,1.25c0,2.18-1.77,3.95-3.95,3.95Z"/><path class="cls-6" d="M176.48,168.68c0,1.49-1.22,2.7-2.7,2.7h-5.81c-1.49,0-2.7-1.22-2.7-2.7v-9.39c0-1.49,1.22-2.7,2.7-2.7h5.81c1.49,0,2.7,1.22,2.7,2.7v4.18"/><path class="cls-11" d="M173.77,172.64h-5.8c-2.18,0-3.96-1.77-3.96-3.95v-9.39c0-2.18,1.77-3.96,3.96-3.96h5.8c2.18,0,3.96,1.77,3.96,3.96v4.18c0,.69-.56,1.25-1.25,1.25s-1.25-.56-1.25-1.25v-4.18c0-.8-.65-1.45-1.45-1.45h-5.8c-.8,0-1.45,.65-1.45,1.45v9.39c0,.8,.65,1.45,1.45,1.45h5.8c.8,0,1.45-.65,1.45-1.45,0-.69,.56-1.25,1.25-1.25s1.25,.56,1.25,1.25c0,2.18-1.77,3.95-3.96,3.95Z"/><path class="cls-6" d="M195.22,145.57c0,1.49-1.22,2.7-2.7,2.7h-5.81c-1.49,0-2.7-1.22-2.7-2.7v-9.39c0-1.49,1.22-2.7,2.7-2.7h5.81c1.49,0,2.7,1.22,2.7,2.7v4.18"/><path class="cls-11" d="M192.51,149.52h-5.81c-2.18,0-3.95-1.77-3.95-3.95v-9.39c0-2.18,1.77-3.95,3.95-3.95h5.81c2.18,0,3.95,1.77,3.95,3.95v4.18c0,.69-.56,1.25-1.25,1.25s-1.25-.56-1.25-1.25v-4.18c0-.8-.65-1.45-1.45-1.45h-5.81c-.8,0-1.45,.65-1.45,1.45v9.39c0,.8,.65,1.45,1.45,1.45h5.81c.8,0,1.45-.65,1.45-1.45,0-.69,.56-1.25,1.25-1.25s1.25,.56,1.25,1.25c0,2.18-1.77,3.95-3.95,3.95Z"/><path class="cls-6" d="M176.48,145.57c0,1.49-1.22,2.7-2.7,2.7h-5.81c-1.49,0-2.7-1.22-2.7-2.7v-9.39c0-1.49,1.22-2.7,2.7-2.7h5.81c1.49,0,2.7,1.22,2.7,2.7v4.18"/><path class="cls-11" d="M173.77,149.52h-5.8c-2.18,0-3.96-1.77-3.96-3.95v-9.39c0-2.18,1.77-3.95,3.96-3.95h5.8c2.18,0,3.96,1.77,3.96,3.95v4.18c0,.69-.56,1.25-1.25,1.25s-1.25-.56-1.25-1.25v-4.18c0-.8-.65-1.45-1.45-1.45h-5.8c-.8,0-1.45,.65-1.45,1.45v9.39c0,.8,.65,1.45,1.45,1.45h5.8c.8,0,1.45-.65,1.45-1.45,0-.69,.56-1.25,1.25-1.25s1.25,.56,1.25,1.25c0,2.18-1.77,3.95-3.96,3.95Z"/><path class="cls-6" d="M195.22,122.45c0,1.49-1.22,2.7-2.7,2.7h-5.81c-1.49,0-2.7-1.22-2.7-2.7v-9.39c0-1.49,1.22-2.7,2.7-2.7h5.81c1.49,0,2.7,1.22,2.7,2.7v4.18"/><path class="cls-11" d="M192.51,126.41h-5.81c-2.18,0-3.95-1.77-3.95-3.95v-9.39c0-2.18,1.77-3.95,3.95-3.95h5.81c2.18,0,3.95,1.77,3.95,3.95v4.18c0,.69-.56,1.25-1.25,1.25s-1.25-.56-1.25-1.25v-4.18c0-.8-.65-1.45-1.45-1.45h-5.81c-.8,0-1.45,.65-1.45,1.45v9.39c0,.8,.65,1.45,1.45,1.45h5.81c.8,0,1.45-.65,1.45-1.45,0-.69,.56-1.25,1.25-1.25s1.25,.56,1.25,1.25c0,2.18-1.77,3.95-3.95,3.95Z"/><path class="cls-6" d="M176.48,122.45c0,1.49-1.22,2.7-2.7,2.7h-5.81c-1.49,0-2.7-1.22-2.7-2.7v-9.39c0-1.49,1.22-2.7,2.7-2.7h5.81c1.49,0,2.7,1.22,2.7,2.7v4.18"/><path class="cls-11" d="M173.77,126.41h-5.8c-2.18,0-3.96-1.77-3.96-3.95v-9.39c0-2.18,1.77-3.95,3.96-3.95h5.8c2.18,0,3.96,1.77,3.96,3.95v4.18c0,.69-.56,1.25-1.25,1.25s-1.25-.56-1.25-1.25v-4.18c0-.8-.65-1.45-1.45-1.45h-5.8c-.8,0-1.45,.65-1.45,1.45v9.39c0,.8,.65,1.45,1.45,1.45h5.8c.8,0,1.45-.65,1.45-1.45,0-.69,.56-1.25,1.25-1.25s1.25,.56,1.25,1.25c0,2.18-1.77,3.95-3.96,3.95Z"/></g><g><path class="cls-4" d="M122.81,91.59c7.02,0,12.72,5.69,12.72,12.72s-5.69,12.72-12.72,12.72-12.72-5.69-12.72-12.72c0-7.03,5.7-12.72,12.72-12.72"/><path class="cls-7" d="M122.81,95.26c5,0,9.05,4.05,9.05,9.05s-4.05,9.05-9.05,9.05-9.05-4.05-9.05-9.05c0-4.99,4.05-9.05,9.05-9.05"/><path class="cls-5" d="M122.68,104.42c-.38-.29-.45-.84-.16-1.22l3.56-4.42c.29-.37,.83-.44,1.21-.16h0c.38,.29,.45,.84,.16,1.22l-3.56,4.42c-.29,.37-.83,.44-1.21,.15h0Z"/><path class="cls-12" d="M128.89,102.66c-.17-.66-.85-1.06-1.52-.88l-4.1,1.1c-.52-.18-1.12-.04-1.51,.36-.28,.28-.44,.65-.44,1.05s.15,.77,.44,1.05c.28,.28,.65,.44,1.05,.44s.77-.15,1.05-.44c.02-.02,.04-.04,.06-.06l4.09-1.1c.66-.17,1.06-.85,.88-1.51Z"/></g><path class="cls-12" d="M145.47,171.39c0-.73-.59-1.32-1.32-1.32s-1.32,.59-1.32,1.32v10.64h1.32v0h1.32v-10.64Z"/><path class="cls-12" d="M102.49,151.91c0-.73-.59-1.32-1.32-1.32s-1.32,.59-1.32,1.32v30.12h1.32v0h1.32v-30.12Z"/><path class="cls-12" d="M122.74,132.22c-.73,0-1.32,.59-1.32,1.32v48.49h1.32v0h1.32v-48.49c0-.73-.59-1.32-1.32-1.32Z"/><line class="cls-1" x1="144.15" y1="152.83" x2="144.15" y2="157.93"/><path class="cls-2" d="M101.25,140.58c0-6.96,5.69-12.65,12.65-12.65h17.68c6.96,0,12.65,5.69,12.65,12.65"/></g><path class="cls-3" d="M203.1,182.02c.45,0,.81-.36,.81-.81V100.4c0-.45,.36-.81,.81-.81h0c.45,0,.81-.36,.81-.81v-.73c0-.45-.36-.81-.81-.81"/><path class="cls-3" d="M102.49,92.93c-.09,.08-5.34,.13-5.47,.13h-8.83c-.27,0-.49,.22-.49,.49v3.69H39.95c-.45,0-.81,.36-.81,.81v.73c0,.45,.36,.81,.81,.81s.81,.36,.81,.81v80.82c0,.45,.36,.81,.81,.81h38.48"/><path class="cls-9" d="M120.69,61.05c-.69,0-1.25-.56-1.25-1.25v-5.59c0-3.11,2.53-5.63,5.63-5.63,.69,0,1.25,.56,1.25,1.25s-.56,1.25-1.25,1.25c-1.73,0-3.13,1.41-3.13,3.13v5.59c0,.69-.56,1.25-1.25,1.25Z"/><path class="cls-9" d="M138.68,65.44h-6.8c-.69,0-1.25-.56-1.25-1.25s.56-1.25,1.25-1.25h6.8c1.73,0,3.13-1.41,3.13-3.13v-5.59c0-1.73-1.41-3.13-3.13-3.13-.69,0-1.25-.56-1.25-1.25s.56-1.25,1.25-1.25c3.11,0,5.63,2.53,5.63,5.63v5.59c0,3.11-2.53,5.63-5.63,5.63Z"/></g><circle class="cls-12" cx="206.41" cy="64.74" r="2.09" transform="translate(29.3 188.95) rotate(-52.46)"/><path class="cls-11" d="M40.69,73.14c.69-1.12,1.02-2.18,.88-3.28h0c-.14-1.1-.73-2.05-1.79-3.03-.44-.5-.53-1.24,.05-1.78,.5-.44,1.05-.51,1.57-.11,1.22,.77,2.37,1,3.28,.88,1.1-.14,2.05-.73,2.95-1.69,.48-.62,1.32-.64,1.75-.14,.52,.4,.51,1.05,.22,1.65-.69,1.12-1.02,2.18-.88,3.28h0c.14,1.1,.73,2.05,1.79,3.03,.44,.5,.53,1.24-.05,1.78-.5,.44-1.05,.51-1.57,.11-1.22-.77-2.37-1-3.28-.88-1.1,.14-2.05,.73-2.95,1.69-.5,.44-1.24,.53-1.86,.06-.33-.42-.43-1.16-.11-1.57Z"/><path class="cls-14" d="M182.71,53.65l-.65-4.95c-.12-.92,.52-1.75,1.51-1.97l4.77-.62c.92-.12,1.75,.52,1.97,1.51l.62,4.77c.12,.92-.52,1.75-1.51,1.97l-4.77,.62c-1,.22-1.83-.41-1.95-1.33Z"/><path class="cls-13" d="M90.53,214.89l-4.01,.52c-.74,.1-1.41-.42-1.6-1.23l-.51-3.86c-.1-.74,.42-1.41,1.23-1.6l3.86-.51c.74-.1,1.41,.42,1.6,1.23l.51,3.86c.18,.81-.34,1.48-1.08,1.58Z"/><circle class="cls-6" cx="156.65" cy="202.97" r="2.09" transform="translate(-99.74 203.49) rotate(-52.46)"/></g></g></svg>