<?xml version="1.0" encoding="UTF-8"?><svg id="Layer_2" xmlns="http://www.w3.org/2000/svg" viewBox="0 0 245 247"><defs><style>.cls-1{fill:#ebecb9;}.cls-2{fill:#ffb400;}.cls-3{fill:#fcd757;}.cls-4{fill:#71bf43;}.cls-5{fill:#9a275a;}.cls-6{fill:#1e90ff;}.cls-7{fill:#272525;}</style></defs><g id="Layer_1-2"><g><rect class="cls-6" width="245" height="247" rx="35.74" ry="35.74"/><g><g><g><polygon class="cls-7" points="103.83 170.94 103.83 170.94 103.83 170.94 103.83 170.94"/><g><path class="cls-3" d="M103.81,170.51c0,.14,.02,.28,.02,.43h28.58l.2,2.02h-27.89c1.13,4.29,3.93,7.62,7.43,8.73,.07-.43,.41-.76,.84-.82,.05,0,.09-.03,.13-.03,.56,0,1.01,.45,1.01,1.01,0,.07,0,.14,.01,.21,0,.27,.02,.53,.04,.78,.01,.1,.03,.2,.05,.3,.34,2.3,1.52,3.82,2.6,3.82h10.73c1.09,0,2.27-1.52,2.6-3.82,.01-.1,.04-.2,.05-.3,.03-.25,.04-.51,.04-.78,0-.07,.01-.14,.01-.21,0-.56,.45-1.06,1-1.06h.15c3.07-.77,5.71-3.52,6.95-7.25h.11l.86-2.6h1.24c0-.14,.02-.29,.02-.43v-7.94h-36.81v7.94Z"/><path class="cls-1" d="M164.94,109.24c-.45-10.46-4.79-20.41-12.23-28.01-7.44-7.6-17.3-12.14-27.74-12.79-1.83-.11-3.66-.11-5.49,0-10.45,.65-20.3,5.2-27.74,12.79-4.94,5.05-8.51,11.13-10.49,17.71,0,.04,0,.08-.01,.11-.09,.27-.18,.55-.26,.82-.84,3.04-1.34,6.17-1.47,9.35-.62,14.39,5.97,28.03,17.62,36.49,4.19,3.05,6.7,7.87,6.7,12.92v1.9h36.81v-1.9c0-5.04,2.5-9.87,6.7-12.92,11.65-8.46,18.24-22.1,17.62-36.49Zm-74.7,5.65c.04,.56-.38,1.04-.93,1.08-.56,.04-1.04-.38-1.08-.93-.06-.82-.09-1.66-.09-2.49,0-1.98,.17-3.97,.51-5.91,.09-.49,.51-.84,.99-.84,.06,0,.12,0,.17,.02,.55,.1,.92,.62,.82,1.17-.32,1.82-.48,3.69-.48,5.56,0,.78,.03,1.57,.08,2.35Zm17.66-31.05c-7.08,3.54-12.58,9.53-15.49,16.86-.21,.52-.79,.77-1.31,.56-.52-.21-.77-.79-.56-1.31,3.1-7.8,8.95-14.17,16.47-17.92,.14-.07,.3-.11,.45-.11,.37,0,.73,.2,.9,.56,.25,.5,.05,1.1-.45,1.35Z"/></g><g><path class="cls-2" d="M166.95,109.16c-.47-10.96-5.02-21.38-12.81-29.33-7.79-7.96-18.11-12.71-29.06-13.4-.95-.06-1.92-.09-2.87-.09s-1.92,.03-2.87,.09c-10.95,.68-21.27,5.44-29.06,13.4-5.46,5.57-9.31,12.35-11.3,19.68-.44,1.46-.79,2.96-1.02,4.47-.06,.37-.08,.73-.12,1.1v.11c-.06,.39-.12,.78-.15,1.17h0c-.04,.53,.38,1,.93,1.05,.55,.04,1.03-.35,1.07-.89,.06-.75,.14-1.5,.25-2.24,.23-1.49,.57-2.96,1.01-4.38,.09-.28,.17-.55,.26-.82,.01-.04,0-.08,.01-.11,1.98-6.58,5.54-12.67,10.49-17.71,7.44-7.6,17.3-12.14,27.74-12.79,1.83-.11,3.66-.11,5.49,0,10.45,.65,20.3,5.2,27.74,12.79,7.44,7.6,11.79,17.54,12.23,28.01,.62,14.39-5.97,28.03-17.62,36.49-4.19,3.05-6.7,7.87-6.7,12.92v1.9h-37.72c-.56,0-1.01,.45-1.01,1.01s.45,1.01,1.01,1.01h37.72v7.94c0,.15-.02,.29-.02,.43h-1.96c-.56,0-1.01,.45-1.01,1.01s.45,1.01,1.01,1.01h-.06c-1.15,4.03-3.91,7.03-7.14,7.84h-.15c-.56,0-1,.5-1,1.06,0,.07,0,.14-.01,.21,0,.27-.02,.53-.04,.78-.01,.1-.03,.2-.05,.3-.34,2.3-1.52,3.82-2.6,3.82h-10.73c-1.09,0-2.27-1.52-2.6-3.82-.01-.1-.04-.2-.05-.3-.03-.25-.04-.51-.04-.78,0-.07-.01-.14-.01-.21,0-.56-.45-1.01-1.01-1.01-.05,0-.09,.02-.13,.03-.43,.06-.77,.39-.84,.82,0,.06-.03,.11-.03,.16,0,.26,0,.52,.03,.77,0,.06,.01,.12,.02,.19,.3,3.53,2.25,6.17,4.68,6.17h10.73c2.43,0,4.38-2.65,4.68-6.17,4.04-1.12,7.31-4.82,8.54-9.85h.74c.54,0,.98-.43,1-.97,0-.01,0-.02,0-.04h0c.04-.34,.06-.67,.07-1.01,0-.14,.01-.29,.01-.43v-11.86c0-4.4,2.19-8.62,5.87-11.28,12.2-8.86,19.1-23.14,18.45-38.21Z"/><path class="cls-2" d="M108.35,82.49c-.18-.35-.53-.56-.9-.56-.15,0-.31,.03-.45,.11-7.52,3.76-13.37,10.12-16.47,17.92-.21,.52,.05,1.1,.56,1.31,.52,.21,1.1-.05,1.31-.56,2.92-7.34,8.42-13.33,15.49-16.86,.5-.25,.7-.85,.45-1.35Z"/><path class="cls-2" d="M89.81,105.82c-.06-.01-.12-.02-.17-.02-.48,0-.91,.35-.99,.84-.34,1.94-.51,3.92-.51,5.91,0,.83,.03,1.67,.09,2.49,.04,.56,.52,.97,1.08,.93,.56-.04,.97-.52,.93-1.08-.06-.78-.08-1.57-.08-2.35,0-1.87,.16-3.74,.48-5.56,.1-.55-.27-1.07-.82-1.17Z"/><path class="cls-2" d="M131.51,172.96h1.83c.56,0,1.01-.45,1.01-1.01s-.45-1.01-1.01-1.01h-30.44c-.56,0-1.01,.45-1.01,1.01s.45,1.01,1.01,1.01h28.61Z"/></g></g><g><path class="cls-2" d="M122.5,61.92c.7,0,1.26-.56,1.26-1.26v-12.51c0-.7-.56-1.26-1.26-1.26s-1.26,.56-1.26,1.26v12.51c0,.7,.56,1.26,1.26,1.26h0Z"/><path class="cls-2" d="M171.68,111.1c0,.7,.56,1.26,1.26,1.26h12.51c.7,0,1.26-.56,1.26-1.26s-.56-1.26-1.26-1.26h-12.51c-.7,0-1.26,.56-1.26,1.26h0Z"/><path class="cls-2" d="M73.32,111.1c0-.7-.56-1.26-1.26-1.26h-12.51c-.7,0-1.26,.56-1.26,1.26s.56,1.26,1.26,1.26h12.51c.7,0,1.26-.56,1.26-1.26h0Z"/><path class="cls-2" d="M157.28,76.34c.49,.49,1.27,.5,1.76,.01l8.87-8.87c.49-.49,.49-1.29,0-1.78s-1.29-.49-1.78,0l-8.87,8.87c-.49,.49-.47,1.27,.01,1.76l.02,.02Z"/><path class="cls-2" d="M87.72,145.87c-.49-.49-1.27-.5-1.76-.01l-8.87,8.87c-.49,.49-.49,1.29,0,1.78,.25,.25,.57,.37,.89,.37s.65-.12,.89-.37l8.87-8.87c.49-.49,.47-1.27-.01-1.76l-.02-.02Z"/><path class="cls-2" d="M87.74,76.32c.49-.49,.5-1.27,.01-1.76l-8.87-8.87c-.49-.49-1.29-.49-1.78,0s-.49,1.29,0,1.78l8.87,8.87c.49,.49,1.27,.47,1.76-.01l.02-.02Z"/><path class="cls-2" d="M157.26,145.89c-.49,.49-.5,1.27-.01,1.76l8.87,8.87c.25,.25,.57,.37,.89,.37s.65-.12,.89-.37c.49-.49,.49-1.29,0-1.78l-8.87-8.87c-.49-.49-1.27-.47-1.76,.01l-.02,.02Z"/></g></g><circle class="cls-1" cx="158.35" cy="37.58" r="2.09"/><path class="cls-3" d="M78.69,202.71c-1.31,.13-2.35,.52-3.14,1.31h0c-.78,.78-1.18,1.83-1.31,3.27-.13,.65-.65,1.18-1.44,1.05-.65-.13-1.05-.52-1.05-1.18-.13-1.44-.65-2.48-1.31-3.14-.78-.78-1.83-1.18-3.14-1.31-.78,0-1.31-.65-1.18-1.31,0-.65,.52-1.05,1.18-1.18,1.31-.13,2.35-.52,3.14-1.31h0c.78-.78,1.18-1.83,1.31-3.27,.13-.65,.65-1.18,1.44-1.05,.65,.13,1.05,.52,1.05,1.18,.13,1.44,.65,2.48,1.31,3.14,.78,.78,1.83,1.18,3.14,1.31,.65,.13,1.18,.65,1.18,1.44-.13,.52-.65,1.05-1.18,1.05Z"/><path class="cls-4" d="M37.69,92.15l3.53,3.53c.65,.65,.65,1.7,0,2.48l-3.4,3.4c-.65,.65-1.7,.65-2.48,0l-3.4-3.4c-.65-.65-.65-1.7,0-2.48l3.4-3.4c.65-.78,1.7-.78,2.35-.13Z"/><path class="cls-5" d="M212.11,135.42l2.86,2.86c.53,.53,.53,1.38,0,2.01l-2.75,2.75c-.53,.53-1.38,.53-2.01,0l-2.75-2.75c-.53-.53-.53-1.38,0-2.01l2.75-2.75c.53-.64,1.38-.64,1.91-.11Z"/></g></g></g></svg>