<?xml version="1.0" encoding="UTF-8"?><svg id="Layer_2" xmlns="http://www.w3.org/2000/svg" viewBox="0 0 1504.83 829.72"><defs><style>.cls-1{stroke:#71bf43;}.cls-1,.cls-2,.cls-3{fill:none;stroke-linecap:round;stroke-linejoin:round;stroke-width:2.5px;}.cls-2{stroke:#fcd757;}.cls-3{stroke:#218380;}.cls-4,.cls-5{fill:#ebecb9;}.cls-6{fill:#f0f0f0;}.cls-7,.cls-8{fill:#ed4d4d;}.cls-9{fill:#fff;}.cls-10{fill:#ffb400;}.cls-11,.cls-12{fill:#fcd757;}.cls-13,.cls-14{fill:#ff6847;}.cls-15,.cls-16{fill:#71bf43;}.cls-17,.cls-18{fill:#9a275a;}.cls-19,.cls-20{fill:#1e90ff;}.cls-21,.cls-22{fill:#218380;}.cls-23,.cls-24{fill:#55af82;}.cls-25{fill:#74aabe;}.cls-24,.cls-22,.cls-20,.cls-14,.cls-16,.cls-18,.cls-5,.cls-8,.cls-12{fill-rule:evenodd;}</style></defs><g id="Layer_1-2"><path class="cls-13" d="M61.62,43.26c-11.04,5.74-15.1,12.85-15.29,18.76-.08,2.53,.54,4.83,1.61,6.67,1.03,1.77,2.45,3.1,4.03,3.77,2.1,.89,4.57,.55,6.75-1.63,3.86-3.86,5.82-8.16,6.31-12.55,.55-4.99-.78-10.17-3.41-15.02m70.1,34.81c.51,1.3-.12,2.76-1.41,3.28-1.29,.52-2.76-.12-3.27-1.41-.96-2.43-2-4.8-3.13-7.07-5.81-11.75-14.14-22.22-24.16-28.45-9.76-6.07-21.2-8.09-33.54-3.25,2.99,5.64,4.49,11.72,3.82,17.68-.61,5.48-3.03,10.82-7.76,15.56-3.84,3.84-8.35,4.38-12.28,2.71-2.57-1.09-4.83-3.16-6.4-5.86-1.53-2.62-2.41-5.87-2.3-9.4,.25-7.41,4.94-16.14,17.62-22.87-3.27-4.49-7.59-8.51-12.45-11.64-7.33-4.72-15.82-7.33-23.62-6.29-1.38,.18-2.65-.79-2.83-2.17-.18-1.38,.78-2.65,2.16-2.84,9.05-1.21,18.75,1.73,27.02,7.05,5.63,3.62,10.64,8.38,14.34,13.7l.69-.28c14.07-5.57,27.08-3.29,38.17,3.61,10.86,6.75,19.81,17.96,26.01,30.49,1.23,2.48,2.34,4.98,3.31,7.46Z"/><path class="cls-18" d="M1481.65,781.18c6.55,2.06,10.2,9.06,8.14,15.63-2.06,6.57-9.04,10.22-15.6,8.16-6.55-2.06-10.2-9.06-8.14-15.63,2.06-6.57,9.04-10.22,15.6-8.16"/><path class="cls-20" d="M39.78,326.48c-1.61-8.79-11.77-14.8-22.69-13.42-10.92,1.38-18.48,9.62-16.87,18.41,1.61,8.79,11.77,14.8,22.69,13.42,10.92-1.38,18.48-9.62,16.87-18.41"/><path class="cls-18" d="M237.71,601.35c9.89-1.46,16.65-10.67,15.1-20.58-1.55-9.91-10.83-16.75-20.72-15.29-9.89,1.46-16.65,10.67-15.1,20.58,1.55,9.91,10.83,16.75,20.72,15.29"/><path class="cls-11" d="M173.84,448.62c3.51-11.27,1.43-18.75-2.42-22.82-1.65-1.74-3.62-2.85-5.58-3.36-1.88-.48-3.73-.41-5.23,.2-2.01,.82-3.43,2.72-3.41,5.64,.03,5.18,1.61,9.37,4.24,12.62,2.99,3.7,7.38,6.25,12.41,7.71m-70.37,24.08c-1.22-.52-1.79-1.92-1.27-3.14s1.92-1.78,3.14-1.27c2.28,.97,4.58,1.85,6.86,2.6,11.82,3.91,24.44,5.27,35.35,2.67,10.62-2.54,19.63-8.9,24.62-20.46-5.8-1.74-10.9-4.78-14.48-9.2-3.29-4.07-5.27-9.25-5.3-15.61-.03-5.15,2.63-8.55,6.39-10.09,2.46-1,5.36-1.15,8.23-.41,2.79,.72,5.57,2.28,7.88,4.72,4.83,5.11,7.59,14.09,3.64,27.12,5.21,.79,10.82,.55,16.18-.64,8.09-1.8,15.53-5.78,20.04-11.73,.8-1.05,2.3-1.26,3.35-.46,1.06,.8,1.26,2.3,.47,3.35-5.24,6.91-13.7,11.49-22.82,13.53-6.21,1.38-12.77,1.59-18.83,.54l-.27,.65c-5.65,13.2-15.9,20.46-27.97,23.34-11.82,2.82-25.36,1.39-37.96-2.78-2.5-.83-4.92-1.74-7.24-2.73Z"/><path class="cls-23" d="M1130.48,316.23c-3.51,11.27-1.43,18.75,2.42,22.82,1.65,1.74,3.62,2.85,5.58,3.36,1.88,.48,3.73,.41,5.23-.2,2.01-.82,3.43-2.72,3.41-5.64-.03-5.18-1.61-9.37-4.24-12.62-2.99-3.7-7.38-6.25-12.41-7.71m70.37-24.08c1.22,.52,1.79,1.92,1.27,3.14s-1.92,1.78-3.14,1.27c-2.28-.97-4.58-1.85-6.86-2.6-11.82-3.91-24.44-5.27-35.35-2.67-10.62,2.54-19.63,8.9-24.62,20.46,5.8,1.74,10.9,4.78,14.48,9.2,3.29,4.07,5.27,9.25,5.3,15.61,.03,5.15-2.63,8.55-6.39,10.09-2.46,1-5.36,1.15-8.23,.41-2.79-.72-5.57-2.28-7.88-4.72-4.83-5.11-7.59-14.09-3.64-27.12-5.21-.79-10.82-.55-16.18,.64-8.09,1.8-15.53,5.78-20.04,11.73-.8,1.05-2.3,1.26-3.35,.46-1.06-.8-1.26-2.3-.47-3.35,5.24-6.91,13.7-11.49,22.82-13.53,6.21-1.38,12.77-1.59,18.83-.54l.27-.65c5.65-13.2,15.9-20.46,27.97-23.34,11.82-2.82,25.36-1.39,37.96,2.78,2.5,.83,4.92,1.74,7.24,2.73Z"/><path class="cls-19" d="M335.28,746.89c0-1.21,.99-2.19,2.2-2.19,1.21,0,2.19,.98,2.19,2.19,0,11.14,10.24,15.1,21.81,19.57,17.57,6.8,37.9,14.67,35.55,48.01-.09,1.21-1.14,2.12-2.35,2.03-1.21-.09-2.11-1.14-2.02-2.34,2.13-30.09-16.59-37.34-32.77-43.6-13.05-5.05-24.6-9.52-24.6-23.67"/><path class="cls-4" d="M1483.29,119.72c.86-.85,2.25-.85,3.1,0,.85,.86,.85,2.24,0,3.1-7.87,7.88-3.43,17.92,1.58,29.26,7.62,17.23,16.43,37.17-8.81,59.08-.92,.79-2.3,.69-3.09-.22-.79-.91-.69-2.3,.23-3.09,22.78-19.78,14.67-38.14,7.66-54-5.66-12.79-10.66-24.12-.66-34.14"/><path class="cls-4" d="M864.72,575.49c.86-.85,2.25-.85,3.1,0,.85,.86,.85,2.24,0,3.1-7.87,7.88-3.43,17.92,1.58,29.26,7.62,17.23,16.43,37.17-8.81,59.08-.92,.79-2.3,.69-3.09-.22-.79-.91-.69-2.3,.23-3.09,22.78-19.78,14.67-38.14,7.66-54-5.66-12.79-10.66-24.12-.66-34.14"/><path class="cls-14" d="M1324.77,72.84c-1.06,13.26,8.99,26.02,22.44,28.51,13.45,2.49,25.21-6.24,26.26-19.49,1.06-13.26-8.99-26.02-22.44-28.51-13.45-2.49-25.21,6.24-26.26,19.49"/><path class="cls-16" d="M1421,546.65c-13.26-1.06-26.02,8.99-28.51,22.44-2.49,13.45,6.24,25.21,19.49,26.26,13.26,1.06,26.02-8.99,28.51-22.44,2.49-13.45-6.24-25.21-19.49-26.26"/><path class="cls-16" d="M347.48,444.27c-6.63-.53-13.01,4.5-14.26,11.22-1.25,6.72,3.12,12.6,9.75,13.13,6.63,.53,13.01-4.5,14.26-11.22,1.24-6.72-3.12-12.6-9.75-13.13"/><path class="cls-16" d="M891.55,766.84c-4.54-.36-8.91,3.08-9.77,7.69-.85,4.61,2.14,8.63,6.68,9,4.54,.36,8.91-3.08,9.77-7.69,.85-4.61-2.14-8.63-6.68-9"/><path class="cls-12" d="M1218.23,126.52c4.94,0,8.95,4,8.95,8.93s-4.01,8.93-8.95,8.93-8.95-4-8.95-8.93,4.01-8.93,8.95-8.93"/><path class="cls-12" d="M742.12,408.41c4.94,0,8.95,4,8.95,8.93s-4.01,8.93-8.95,8.93-8.95-4-8.95-8.93,4.01-8.93,8.95-8.93"/><g id="Layer_1-2"><g><rect class="cls-13" x="475.36" y="448.51" width="359.19" height="362.12" rx="52.4" ry="52.4"/><g><g><path class="cls-12" d="M617.72,523.03h73.96c5.4,0,9.97,4.98,9.97,10.8v79.78c0,5.82-4.57,10.8-9.97,10.8h-73.96c-5.4,0-9.97-4.98-9.97-10.8v-79.78c0-6.23,4.57-10.8,9.97-10.8Z"/><path class="cls-10" d="M691.68,626.65h-73.96c-6.35,0-11.7-5.73-11.7-12.53,0-.95,.78-1.73,1.73-1.73s1.73,.78,1.73,1.73c0,4.84,3.86,9.07,8.24,9.07h73.96c4.4,0,8.24-4.24,8.24-9.07,0-.95,.78-1.73,1.73-1.73s1.73,.78,1.73,1.73c0,6.79-5.35,12.53-11.7,12.53h0Z"/><path class="cls-10" d="M701.66,597.81c-.95,0-1.73-.78-1.73-1.73v-52.46c0-.95,.78-1.73,1.73-1.73s1.73,.78,1.73,1.73v52.46c0,.95-.78,1.73-1.73,1.73Z"/><path class="cls-10" d="M607.75,556.26c-.95,0-1.73-.78-1.73-1.73v-20.2c0-7.02,5.13-12.53,11.7-12.53h73.96c6.35,0,11.7,5.73,11.7,12.53,0,.95-.78,1.73-1.73,1.73s-1.73-.78-1.73-1.73c0-4.84-3.86-9.07-8.24-9.07h-73.96c-4.62,0-8.24,3.99-8.24,9.07v20.2c0,.95-.78,1.73-1.73,1.73h0Z"/><path class="cls-9" d="M680.46,598.24c.41,1.25,.41,2.08,.84,2.49,0,.41,0,1.25-.41,1.25-.84,.41-1.25,.41-2.08,.41h-7.07c-.84,0-1.66,0-2.08-.41-.41,0-.84-.41-.84-.41,0-.41-.41-.41-.41-.84l-3.74-11.64h-21.61l-3.74,11.22c0,.41-.41,.84-.41,1.25s-.41,.41-.84,.84-.84,.41-1.66,.41h-6.23c-.84,0-1.25-.41-1.66-.84-.41-.41-.41-.84-.41-1.25s.41-1.25,.84-2.49l17.87-51.11c0-.41,.41-.84,.41-1.25,.27-.27,.69-.55,1.25-.84,.41,0,1.25-.41,2.08-.41h7.9c1.25,0,1.66,0,2.49,.41s.84,.41,1.25,.84c.41,.41,.41,.84,.84,1.25l17.45,51.11h-.03Zm-26.59-42.37h0l-7.9,24.51h16.2c-.41,0-8.31-24.51-8.31-24.51h.01Z"/><path class="cls-10" d="M607.75,607.81c-.95,0-1.73-.78-1.73-1.73v-33.35c0-.95,.78-1.73,1.73-1.73s1.73,.78,1.73,1.73v33.35c0,.95-.78,1.73-1.73,1.73Z"/></g><g><path class="cls-24" d="M565.17,634.21h73.96c5.4,0,9.97,4.98,9.97,10.8v79.78c0,5.82-4.57,10.8-9.97,10.8h-73.96c-5.4,0-9.97-4.98-9.97-10.8v-79.78c0-6.23,4.57-10.8,9.97-10.8Z"/><path class="cls-21" d="M565.17,632.47h73.96c6.35,0,11.7,5.73,11.7,12.53,0,.95-.78,1.73-1.73,1.73s-1.73-.78-1.73-1.73c0-4.84-3.86-9.07-8.24-9.07h-73.96c-4.4,0-8.24,4.24-8.24,9.07,0,.95-.78,1.73-1.73,1.73s-1.73-.78-1.73-1.73c0-6.79,5.35-12.53,11.7-12.53Z"/><path class="cls-21" d="M555.2,661.29c.95,0,1.73,.78,1.73,1.73v52.46c0,.95-.78,1.73-1.73,1.73s-1.73-.78-1.73-1.73v-52.46c0-.95,.78-1.73,1.73-1.73Z"/><path class="cls-21" d="M649.1,702.84c.95,0,1.73,.78,1.73,1.73v20.2c0,7.02-5.13,12.53-11.7,12.53h-73.96c-6.35,0-11.7-5.73-11.7-12.53,0-.95,.78-1.73,1.73-1.73s1.73,.78,1.73,1.73c0,4.84,3.86,9.07,8.24,9.07h73.96c4.62,0,8.24-3.99,8.24-9.07v-20.2c0-.95,.78-1.73,1.73-1.73Z"/><path class="cls-21" d="M649.1,651.29c.95,0,1.73,.78,1.73,1.73v33.35c0,.95-.78,1.73-1.73,1.73s-1.73-.78-1.73-1.73v-33.35c0-.95,.78-1.73,1.73-1.73Z"/><path class="cls-9" d="M623.83,696.76c0,2.08-.41,3.74-.84,5.4-.41,1.66-1.25,3.33-2.49,4.57-.84,1.25-2.08,2.49-3.74,3.33-1.25,.84-2.9,1.66-4.57,2.08-1.66,.41-3.33,.84-5.4,1.25s-4.15,.41-6.23,.41h-14.95c-.84,0-1.66-.41-2.49-.84-.84-.41-.84-1.66-.84-2.9v-50.29c0-1.25,.41-2.08,.84-2.9,.84-.41,1.66-.84,2.49-.84h14.54c3.33,0,6.64,.41,9.15,.84,2.49,.41,4.57,1.66,6.23,2.49,1.66,1.25,2.9,2.9,3.74,4.57,.84,1.67,1.25,4.15,1.25,6.64,0,1.25,0,2.9-.41,3.74-.41,1.25-.84,2.49-1.66,3.33s-1.66,2.08-2.49,2.49c-.84,.84-2.08,1.25-3.33,1.66,1.66,.41,3.33,.84,4.57,1.66s2.49,1.66,3.74,2.9,1.66,2.49,2.49,4.15c.41,2.08,.41,4.15,.41,6.23h0v.03Zm-14.97-24.51c0-1.25,0-2.08-.41-3.33-.41-.84-.84-1.66-1.66-2.49-.84-.41-1.66-1.25-2.49-1.25-1.25-.41-2.49-.41-4.15-.41h-6.23v14.95h6.64c1.66,0,2.9,0,4.15-.41,.84-.41,1.66-.84,2.49-1.66,.84-.84,1.25-1.66,1.66-2.49v-2.9h0Zm2.9,24.92c0-1.25-.41-2.49-.84-3.74-.41-1.25-1.25-2.08-2.08-2.49s-2.08-1.25-3.33-1.66-2.9-.41-5.4-.41h-6.23v16.63h8.31c1.66,0,2.9,0,4.15-.41s2.08-.84,2.9-1.66,1.25-1.66,2.08-2.49c.41-1.66,.41-2.49,.41-3.74h0v-.03Z"/></g><g><path class="cls-8" d="M670.77,634.24h73.96c5.4,0,9.97,4.98,9.97,10.8v79.78c0,5.82-4.57,10.8-9.97,10.8h-73.96c-5.4,0-9.97-4.98-9.97-10.8v-79.78c0-6.23,4.57-10.8,9.97-10.8Z"/><path class="cls-17" d="M744.74,737.32h-73.96c-6.35,0-11.7-5.73-11.7-12.53,0-.95,.78-1.73,1.73-1.73s1.73,.78,1.73,1.73c0,4.84,3.86,9.07,8.24,9.07h73.96c4.4,0,8.24-4.24,8.24-9.07,0-.95,.78-1.73,1.73-1.73s1.73,.78,1.73,1.73c0,6.79-5.35,12.53-11.7,12.53h0Z"/><path class="cls-17" d="M754.71,708.5c-.95,0-1.73-.78-1.73-1.73v-52.46c0-.95,.78-1.73,1.73-1.73s1.73,.78,1.73,1.73v52.46c0,.95-.78,1.73-1.73,1.73Z"/><path class="cls-17" d="M660.8,666.95c-.95,0-1.73-.78-1.73-1.73v-20.2c0-7.02,5.13-12.53,11.7-12.53h73.96c6.35,0,11.7,5.73,11.7,12.53,0,.95-.78,1.73-1.73,1.73s-1.73-.78-1.73-1.73c0-4.84-3.86-9.07-8.24-9.07h-73.96c-4.62,0-8.24,3.99-8.24,9.07v20.2c0,.95-.78,1.73-1.73,1.73Z"/><path class="cls-17" d="M660.8,718.5c-.95,0-1.73-.78-1.73-1.73v-33.35c0-.95,.78-1.73,1.73-1.73s1.73,.78,1.73,1.73v33.35c0,.95-.78,1.73-1.73,1.73Z"/><path class="cls-9" d="M728.95,704.88v3.33c0,.41,0,.84-.41,.84,0,.41-.41,.41-.84,.84s-.84,.84-2.08,1.25c-.84,.41-2.08,.84-3.33,1.66-1.25,.41-2.9,.84-4.57,1.25s-3.74,.41-5.82,.41c-3.74,0-7.48-.41-10.8-1.66-3.33-1.25-5.82-2.9-7.9-5.4s-3.74-5.4-4.98-9.15c-1.25-3.74-1.66-7.9-1.66-12.46,0-4.98,.84-9.15,2.08-12.89s3.33-7.07,5.4-9.56c2.49-2.49,4.98-4.57,8.31-5.82s7.07-2.08,10.8-2.08c1.66,0,3.33,0,4.57,.41,1.66,.41,2.9,.41,4.15,1.25,1.25,.41,2.49,.84,3.33,1.66s1.66,1.25,2.08,1.25l.84,.84s.41,.41,.41,.84v5.82c0,.41,0,1.25-.41,1.66,0,.41-.41,.84-.41,.84,0,0-.41,.41-.84,.41s-.84-.41-1.66-.84c-.84-.41-1.66-1.25-2.49-1.66-1.25-.84-2.49-1.25-3.74-1.66-1.66-.41-3.33-.84-5.4-.84s-4.15,.41-6.23,1.25c-1.66,.84-3.33,2.08-4.57,4.15-1.25,1.66-2.08,3.74-2.9,6.23-.82,2.49-.84,5.4-.84,8.31,0,3.33,.41,6.23,1.25,8.72s1.66,4.57,2.9,6.23c1.25,1.66,2.9,2.9,4.57,3.74s3.74,1.25,6.23,1.25c2.08,0,3.74-.41,5.4-.84,1.66-.41,2.9-.84,3.74-1.66,1.25-.41,2.08-1.25,2.49-1.66,.84-.41,1.25-.84,1.66-.84h.84s.41,.41,.41,.84,0,.84,.41,1.66v2.08h.01Z"/></g></g><circle class="cls-17" cx="527" cy="546.36" r="3.06"/><path class="cls-11" d="M565.71,588.57c-1.69-.94-3.27-1.35-4.87-1.07h0c-1.6,.28-2.96,1.2-4.32,2.81-.7,.67-1.77,.86-2.61,.04-.67-.7-.82-1.51-.26-2.29,1.06-1.83,1.3-3.53,1.07-4.87-.28-1.6-1.2-2.96-2.67-4.21-.94-.66-1.01-1.89-.31-2.57,.56-.78,1.51-.82,2.4-.43,1.69,.94,3.27,1.35,4.87,1.07h0c1.6-.28,2.96-1.2,4.32-2.81,.7-.67,1.77-.86,2.61-.04,.67,.7,.82,1.51,.26,2.29-1.06,1.83-1.3,3.53-1.07,4.87,.28,1.6,1.2,2.96,2.67,4.21,.67,.7,.86,1.77,.21,2.71-.6,.51-1.67,.7-2.29,.26h-.01Z"/><path class="cls-4" d="M757.84,526.49l-1.26-7.21c-.23-1.33,.65-2.59,2.1-2.98l6.95-1.22c1.33-.23,2.59,.65,2.98,2.1l1.22,6.95c.23,1.33-.65,2.59-2.1,2.98l-6.95,1.22c-1.45,.4-2.7-.5-2.93-1.83Z"/><path class="cls-19" d="M702.94,771.33l1.03,5.83c.19,1.08-.53,2.1-1.7,2.42l-5.63,.98c-1.08,.19-2.1-.53-2.42-1.7l-.98-5.63c-.19-1.08,.53-2.1,1.7-2.42l5.63-.98c1.17-.32,2.18,.4,2.38,1.48h0Z"/></g></g><g id="Layer_1-2-2"><g><rect class="cls-19" x="193.07" y="15.78" width="359.19" height="362.12" rx="52.4" ry="52.4"/><g><g><g><g><path class="cls-11" d="M345.26,265.76c0,.21,.03,.41,.03,.63h41.9l.29,2.96h-40.89c1.66,6.29,5.76,11.17,10.89,12.8,.1-.63,.6-1.11,1.23-1.2,.07,0,.13-.04,.19-.04,.82,0,1.48,.66,1.48,1.48,0,.1,0,.21,.01,.31,0,.4,.03,.78,.06,1.14,.01,.15,.04,.29,.07,.44,.5,3.37,2.23,5.6,3.81,5.6h15.73c1.6,0,3.33-2.23,3.81-5.6,.01-.15,.06-.29,.07-.44,.04-.37,.06-.75,.06-1.14,0-.1,.01-.21,.01-.31,0-.82,.66-1.55,1.47-1.55h.22c4.5-1.13,8.37-5.16,10.19-10.63h.16l1.26-3.81h1.82c0-.21,.03-.43,.03-.63v-11.64h-53.97v11.64h.04Z"/><path class="cls-4" d="M434.89,175.94c-.66-15.34-7.02-29.92-17.93-41.06-10.91-11.14-25.36-17.8-40.67-18.75-2.68-.16-5.37-.16-8.05,0-15.32,.95-29.76,7.62-40.67,18.75-7.24,7.4-12.48,16.32-15.38,25.96,0,.06,0,.12-.01,.16-.13,.4-.26,.81-.38,1.2-1.23,4.46-1.96,9.05-2.16,13.71-.91,21.1,8.75,41.09,25.83,53.5,6.14,4.47,9.82,11.54,9.82,18.94v2.79h53.97v-2.79c0-7.39,3.67-14.47,9.82-18.94,17.08-12.4,26.74-32.4,25.83-53.5l-.03,.03Zm-109.52,8.28c.06,.82-.56,1.52-1.36,1.58-.82,.06-1.52-.56-1.58-1.36-.09-1.2-.13-2.43-.13-3.65,0-2.9,.25-5.82,.75-8.66,.13-.72,.75-1.23,1.45-1.23,.09,0,.18,0,.25,.03,.81,.15,1.35,.91,1.2,1.72-.47,2.67-.7,5.41-.7,8.15,0,1.14,.04,2.3,.12,3.45h.01Zm25.89-45.54c-10.38,5.19-18.44,13.97-22.71,24.72-.31,.76-1.16,1.13-1.92,.82s-1.13-1.16-.82-1.92c4.54-11.44,13.12-20.77,24.15-26.27,.21-.1,.44-.16,.66-.16,.54,0,1.07,.29,1.32,.82,.37,.73,.07,1.61-.66,1.98h-.01Z"/></g><g><path class="cls-10" d="M437.83,175.82c-.69-16.07-7.36-31.34-18.78-43-11.42-11.67-26.55-18.63-42.6-19.65-1.39-.09-2.81-.13-4.21-.13s-2.81,.04-4.21,.13c-16.05,1-31.18,7.98-42.6,19.65-8,8.17-13.65,18.11-16.57,28.85-.65,2.14-1.16,4.34-1.5,6.55-.09,.54-.12,1.07-.18,1.61v.16c-.09,.57-.18,1.14-.22,1.72h0c-.06,.78,.56,1.47,1.36,1.54,.81,.06,1.51-.51,1.57-1.3,.09-1.1,.21-2.2,.37-3.28,.34-2.18,.84-4.34,1.48-6.42,.13-.41,.25-.81,.38-1.2,.01-.06,0-.12,.01-.16,2.9-9.65,8.12-18.58,15.38-25.96,10.91-11.14,25.36-17.8,40.67-18.75,2.68-.16,5.37-.16,8.05,0,15.32,.95,29.76,7.62,40.67,18.75,10.91,11.14,17.28,25.71,17.93,41.06,.91,21.1-8.75,41.09-25.83,53.5-6.14,4.47-9.82,11.54-9.82,18.94v2.79h-55.3c-.82,0-1.48,.66-1.48,1.48s.66,1.48,1.48,1.48h55.3v11.64c0,.22-.03,.43-.03,.63h-2.87c-.82,0-1.48,.66-1.48,1.48s.66,1.48,1.48,1.48h-.09c-1.69,5.91-5.73,10.31-10.47,11.49h-.22c-.82,0-1.47,.73-1.47,1.55,0,.1,0,.21-.01,.31,0,.4-.03,.78-.06,1.14-.01,.15-.04,.29-.07,.44-.5,3.37-2.23,5.6-3.81,5.6h-15.73c-1.6,0-3.33-2.23-3.81-5.6-.01-.15-.06-.29-.07-.44-.04-.37-.06-.75-.06-1.14,0-.1-.01-.21-.01-.31,0-.82-.66-1.48-1.48-1.48-.07,0-.13,.03-.19,.04-.63,.09-1.13,.57-1.23,1.2,0,.09-.04,.16-.04,.23,0,.38,0,.76,.04,1.13,0,.09,.01,.18,.03,.28,.44,5.18,3.3,9.05,6.86,9.05h15.73c3.56,0,6.42-3.89,6.86-9.05,5.92-1.64,10.72-7.07,12.52-14.44h1.08c.79,0,1.44-.63,1.47-1.42v-.06h0c.06-.5,.09-.98,.1-1.48,0-.21,.01-.43,.01-.63v-17.39c0-6.45,3.21-12.64,8.61-16.54,17.89-12.99,28-33.92,27.05-56.02v-.06Z"/><path class="cls-10" d="M351.92,136.72c-.26-.51-.78-.82-1.32-.82-.22,0-.45,.04-.66,.16-11.02,5.51-19.6,14.84-24.15,26.27-.31,.76,.07,1.61,.82,1.92,.76,.31,1.61-.07,1.92-.82,4.28-10.76,12.34-19.54,22.71-24.72,.73-.37,1.03-1.25,.66-1.98h.01Z"/><path class="cls-10" d="M324.74,170.92c-.09-.01-.18-.03-.25-.03-.7,0-1.33,.51-1.45,1.23-.5,2.84-.75,5.75-.75,8.66,0,1.22,.04,2.45,.13,3.65,.06,.82,.76,1.42,1.58,1.36,.82-.06,1.42-.76,1.36-1.58-.09-1.14-.12-2.3-.12-3.45,0-2.74,.23-5.48,.7-8.15,.15-.81-.4-1.57-1.2-1.72h-.01Z"/><path class="cls-10" d="M385.87,269.36h2.68c.82,0,1.48-.66,1.48-1.48s-.66-1.48-1.48-1.48h-44.63c-.82,0-1.48,.66-1.48,1.48s.66,1.48,1.48,1.48h41.94Z"/></g></g><g><path class="cls-10" d="M372.67,106.56c1.03,0,1.85-.82,1.85-1.85v-18.34c0-1.03-.82-1.85-1.85-1.85s-1.85,.82-1.85,1.85v18.34c0,1.03,.82,1.85,1.85,1.85h0Z"/><path class="cls-10" d="M444.77,178.66c0,1.03,.82,1.85,1.85,1.85h18.34c1.03,0,1.85-.82,1.85-1.85s-.82-1.85-1.85-1.85h-18.34c-1.03,0-1.85,.82-1.85,1.85h0Z"/><path class="cls-10" d="M300.56,178.66c0-1.03-.82-1.85-1.85-1.85h-18.34c-1.03,0-1.85,.82-1.85,1.85s.82,1.85,1.85,1.85h18.34c1.03,0,1.85-.82,1.85-1.85h0Z"/><path class="cls-10" d="M423.66,127.7c.72,.72,1.86,.73,2.58,.01l13-13c.72-.72,.72-1.89,0-2.61s-1.89-.72-2.61,0l-13,13c-.72,.72-.69,1.86,.01,2.58l.03,.03h-.01Z"/><path class="cls-10" d="M321.68,229.64c-.72-.72-1.86-.73-2.58-.01l-13,13c-.72,.72-.72,1.89,0,2.61,.37,.37,.84,.54,1.3,.54s.95-.18,1.3-.54l13-13c.72-.72,.69-1.86-.01-2.58l-.03-.03h.01Z"/><path class="cls-10" d="M321.7,127.67c.72-.72,.73-1.86,.01-2.58l-13-13c-.72-.72-1.89-.72-2.61,0s-.72,1.89,0,2.61l13,13c.72,.72,1.86,.69,2.58-.01l.03-.03h-.01Z"/><path class="cls-10" d="M423.63,229.67c-.72,.72-.73,1.86-.01,2.58l13,13c.37,.37,.84,.54,1.3,.54s.95-.18,1.3-.54c.72-.72,.72-1.89,0-2.61l-13-13c-.72-.72-1.86-.69-2.58,.01l-.03,.03h.01Z"/></g></g><circle class="cls-4" cx="425.22" cy="70.88" r="3.06"/><path class="cls-11" d="M308.44,312.97c-1.92,.19-3.45,.76-4.6,1.92h0c-1.14,1.14-1.73,2.68-1.92,4.79-.19,.95-.95,1.73-2.11,1.54-.95-.19-1.54-.76-1.54-1.73-.19-2.11-.95-3.64-1.92-4.6-1.14-1.14-2.68-1.73-4.6-1.92-1.14,0-1.92-.95-1.73-1.92,0-.95,.76-1.54,1.73-1.73,1.92-.19,3.45-.76,4.6-1.92h0c1.14-1.14,1.73-2.68,1.92-4.79,.19-.95,.95-1.73,2.11-1.54,.95,.19,1.54,.76,1.54,1.73,.19,2.11,.95,3.64,1.92,4.6,1.14,1.14,2.68,1.73,4.6,1.92,.95,.19,1.73,.95,1.73,2.11-.19,.76-.95,1.54-1.73,1.54h0Z"/><path class="cls-15" d="M248.33,150.88l5.18,5.18c.95,.95,.95,2.49,0,3.64l-4.98,4.98c-.95,.95-2.49,.95-3.64,0l-4.98-4.98c-.95-.95-.95-2.49,0-3.64l4.98-4.98c.95-1.14,2.49-1.14,3.45-.19Z"/><path class="cls-17" d="M504.04,214.32l4.19,4.19c.78,.78,.78,2.02,0,2.95l-4.03,4.03c-.78,.78-2.02,.78-2.95,0l-4.03-4.03c-.78-.78-.78-2.02,0-2.95l4.03-4.03c.78-.94,2.02-.94,2.8-.16h-.01Z"/></g></g></g><g id="Layer_1-2-3"><g><rect class="cls-11" x="648.02" y="15.78" width="359.19" height="362.12" rx="52.4" ry="52.4"/><g><path class="cls-24" d="M797.04,106.68l6.71,1.35,31.05,5.94c2.3,.38,3.83,2.68,3.45,4.98l-29.91,155.27c-.38,2.3-2.68,3.83-4.98,3.45l-37.96-7.29c-2.3-.38-3.83-2.68-3.45-4.98l29.91-155.27c.57-2.3,2.87-3.83,5.18-3.45h0Z"/><polygon class="cls-22" points="836.16 130.08 826.19 181.83 779.99 173.01 789.96 121.06 836.16 130.08"/><path class="cls-7" d="M752.58,177.8c-.57,2.87-3.25,4.79-6.13,4.22s-4.79-3.25-4.22-6.13c1.14-6.71,4.41-12.65,8.81-17.26,4.4-4.6,10.35-7.86,16.68-9.02,2.87-.57,5.56,1.54,6.13,4.22,.57,2.87-1.54,5.56-4.22,6.13-4.22,.76-8.05,2.87-10.92,5.94-3.06,3.25-5.37,7.29-6.13,11.89h0Z"/><path class="cls-14" d="M748.16,275.75c-7.67,0-14.38,5.94-24.73-1.54-21.86-16.68-44.28-69.39-19.37-92.01,6.71-6.13,15.91-9.59,25.88-8.81,5.56,.38,8.24,2.3,12.84,3.45,3.06,.76,7.48,.76,10.54,0,4.6-1.14,7.29-2.87,12.84-3.45,9.97-.76,19.16,2.68,25.88,8.81,24.92,22.62,2.49,75.53-19.37,92.01-10.16,7.48-17.07,1.54-24.54,1.54h.03Z"/><path class="cls-7" d="M748.16,178.96c-.95,0-1.54-.76-1.54-1.54s.76-1.54,1.54-1.54c1.73,0,3.45-.19,5.18-.57,1.92-.38,3.83-.95,5.75-1.92h.19c7.29-2.49,13.8-2.49,19.56-.57,6.71,2.11,12.08,6.32,16.1,11.7,4.22,5.75,6.91,12.27,8.05,19.16,1.35,7.67,.95,15.72-.57,23.19-1.73,8.81-7.48,22.81-15.14,33.92-5.94,8.62-13.03,15.91-20.51,18.21h0c-1.54,.38-3.06,.57-4.79,.57s-3.45-.19-5.37-.76h-.19c-1.14-.38-2.49-.76-4.03-.95-1.35-.19-2.87-.38-4.22-.38-.95,0-1.54-.76-1.54-1.54,0-.95,.76-1.54,1.54-1.54,1.73,0,3.25,.19,4.98,.57,1.35,.19,2.87,.76,4.22,1.14h0c1.73,.38,3.25,.57,4.79,.57,1.35,0,2.68-.19,3.83-.57h0c6.71-1.92,13.22-8.62,18.78-16.87,7.48-10.92,12.84-24.35,14.57-32.78,1.54-7.29,1.73-14.76,.57-22.05-1.14-6.32-3.45-12.46-7.48-17.83-3.64-4.79-8.62-8.81-14.57-10.54-5.18-1.54-11.11-1.73-17.64,.57-2.11,.95-4.22,1.54-6.13,2.11-2.11,0-4.03,.19-5.94,.19h0v.04Z"/><path class="cls-7" d="M748.16,175.69c.95,0,1.54,.76,1.54,1.54,0,.95-.76,1.54-1.54,1.54-1.92,0-3.83-.19-5.94-.76-1.92-.38-4.03-1.14-6.13-2.11-6.71-2.3-13.03-2.3-18.4-.57-6.13,1.73-11.3,5.56-14.95,10.35-.57,.76-1.54,.76-2.11,.38-.76-.57-.76-1.54-.38-2.11,4.03-5.37,9.78-9.59,16.68-11.49,6.13-1.73,13.03-1.73,20.32,.76h.19c1.92,.76,3.83,1.54,5.75,1.92,1.54,.38,3.25,.57,4.98,.57h-.01Z"/><path class="cls-24" d="M894.62,86.76h35.65c2.49,0,4.6,2.3,4.6,5.18v180.37c0,2.87-2.11,5.18-4.6,5.18h-35.65c-2.49,0-4.6-2.3-4.6-5.18V91.93c0-2.87,2.11-5.18,4.6-5.18h0Z"/><rect class="cls-21" x="890.02" y="116.65" width="44.86" height="63.26"/><path class="cls-22" d="M840.95,130.08h43.32c3.06,0,5.75,1.73,5.75,4.03v139.56c0,2.3-2.49,4.03-5.75,4.03h-43.32c-3.06,0-5.75-1.73-5.75-4.03V134.1c0-2.3,2.49-4.03,5.75-4.03h0Z"/><rect class="cls-21" x="835.19" y="130.08" width="54.82" height="72.45"/><rect class="cls-23" x="835.19" y="154.99" width="54.82" height="30.86"/><rect class="cls-21" x="890.02" y="194.67" width="44.86" height="16.1"/><circle class="cls-4" cx="912.45" cy="148.29" r="12.84"/><circle class="cls-7" cx="959.03" cy="246.62" r="3.06"/><circle class="cls-4" cx="862.6" cy="243.55" r="16.87"/><path class="cls-10" d="M708.49,137.75c-.19-1.92-.76-3.45-1.92-4.6h0c-1.14-1.14-2.68-1.73-4.79-1.92-.95-.19-1.73-.95-1.54-2.11,.19-.95,.76-1.54,1.73-1.54,2.11-.19,3.64-.95,4.6-1.92,1.14-1.14,1.73-2.68,1.92-4.6,0-1.14,.95-1.92,1.92-1.73,.95,0,1.54,.76,1.73,1.73,.19,1.92,.76,3.45,1.92,4.6h0c1.14,1.14,2.68,1.73,4.79,1.92,.95,.19,1.73,.95,1.54,2.11-.19,.95-.76,1.54-1.73,1.54-2.11,.19-3.64,.95-4.6,1.92-1.14,1.14-1.73,2.68-1.92,4.6-.19,.95-.95,1.73-2.11,1.73-.76-.19-1.54-.95-1.54-1.73Z"/><path class="cls-19" d="M866.45,86.49l-5.18,5.18c-.95,.95-2.49,.95-3.64,0l-4.98-4.98c-.95-.95-.95-2.49,0-3.64l4.98-4.98c.95-.95,2.49-.95,3.64,0l4.98,4.98c1.14,.95,1.14,2.49,.19,3.45Z"/><path class="cls-17" d="M814.62,311.56l-4.19,4.19c-.78,.78-2.02,.78-2.95,0l-4.03-4.03c-.78-.78-.78-2.02,0-2.95l4.03-4.03c.78-.78,2.02-.78,2.95,0l4.03,4.03c.94,.78,.94,2.02,.16,2.8h0Z"/></g></g></g><g id="Layer_1-2-4"><g><rect class="cls-23" x="930.21" y="448.51" width="359.19" height="362.12" rx="52.4" ry="52.4"/><g><g><path class="cls-10" d="M1159.26,592.25v1.07c0,.66-.53,1.19-1.19,1.19h-96.09c-.66,0-1.19-.53-1.19-1.19v-1.07c0-.66-.53-1.19-1.19-1.19h-70.36c-.66,0-1.19,.53-1.19,1.19v1.07c0,.66,.53,1.19,1.19,1.19h0c.66,0,1.19,.53,1.19,1.19v118.49c0,.66,.53,1.19,1.19,1.19h236.8c.66,0,1.19-.53,1.19-1.19v-118.49c0-.66,.53-1.19,1.19-1.19h0c.66,0,1.19-.53,1.19-1.19v-1.07c0-.66-.53-1.19-1.19-1.19h-70.36c-.66,0-1.19,.53-1.19,1.19h0Z"/><path class="cls-11" d="M1160.1,584.92h-12.96c-.18,0-.35-.07-.48-.19l-33.68-30.48c-.15-.13-.23-.34-.23-.53v-28.24c0-.4-.32-.72-.72-.72h0c-2.65,0-4.81,2.16-4.81,4.81v24.23c0,.21-.09,.4-.23,.53l-33.57,30.39c-.13,.12-.31,.19-.48,.19h-12.95c-.4,0-.72,.32-.72,.72v129c0,.4,.32,.72,.72,.72h16.63v-44.16c0-1.07,.86-1.94,1.94-1.94s1.94,.86,1.94,1.94v44.16h27.03c.4,0,.72-.32,.72-.72v-78.58c0-1.07,.86-1.94,1.94-1.94s1.94,.86,1.94,1.94v78.58c0,.4,.32,.72,.72,.72h26.81v-15.6c0-1.07,.86-1.94,1.94-1.94s1.94,.86,1.94,1.94v15.6h16.63c.4,0,.72-.32,.72-.72v-129c0-.4-.32-.72-.72-.72h-.03Z"/><path class="cls-4" d="M1096.12,636.41h27.83c9.71,0,17.59,7.89,17.59,17.59v61.37h-63.01v-61.37c0-9.71,7.89-17.59,17.59-17.59Z"/><rect class="cls-13" x="1107.15" y="521.56" width="32.8" height="21.05" rx="6.42" ry="6.42"/><g><rect class="cls-6" x="1003.08" y="610.77" width="15.5" height="21.23"/><rect class="cls-25" x="1005.08" y="612.75" width="11.52" height="17.24"/><rect class="cls-6" x="1031.03" y="610.77" width="15.5" height="21.23"/><rect class="cls-25" x="1033.02" y="612.75" width="11.52" height="17.24"/><rect class="cls-6" x="1003.08" y="644.42" width="15.5" height="21.23"/><rect class="cls-25" x="1005.08" y="646.41" width="11.52" height="17.24"/><rect class="cls-6" x="1031.03" y="644.42" width="15.5" height="21.23"/><rect class="cls-25" x="1033.02" y="646.41" width="11.52" height="17.24"/><path class="cls-4" d="M1003.67,614.26c0-2.18,1.79-3.96,3.96-3.96h8.52c2.18,0,3.96,1.79,3.96,3.96v13.77c0,2.18-1.79,3.96-3.96,3.96h-8.52c-2.18,0-3.96-1.79-3.96-3.96v-6.13"/><path class="cls-11" d="M1016.15,633.83h-8.52c-3.2,0-5.79-2.59-5.79-5.79v-6.13c0-1.01,.82-1.83,1.83-1.83s1.83,.82,1.83,1.83v6.13c0,1.17,.95,2.13,2.13,2.13h8.52c1.17,0,2.13-.95,2.13-2.13v-13.77c0-1.17-.95-2.13-2.13-2.13h-8.52c-1.17,0-2.13,.95-2.13,2.13,0,1.01-.82,1.83-1.83,1.83s-1.83-.82-1.83-1.83c0-3.2,2.59-5.79,5.79-5.79h8.52c3.2,0,5.79,2.59,5.79,5.79v13.77c0,3.2-2.59,5.79-5.79,5.79Z"/><path class="cls-4" d="M1031.14,614.26c0-2.18,1.79-3.96,3.96-3.96h8.52c2.18,0,3.96,1.79,3.96,3.96v13.77c0,2.18-1.79,3.96-3.96,3.96h-8.52c-2.18,0-3.96-1.79-3.96-3.96v-6.13"/><path class="cls-11" d="M1043.62,633.83h-8.52c-3.2,0-5.79-2.59-5.79-5.79v-6.13c0-1.01,.82-1.83,1.83-1.83s1.83,.82,1.83,1.83v6.13c0,1.17,.95,2.13,2.13,2.13h8.52c1.17,0,2.13-.95,2.13-2.13v-13.77c0-1.17-.95-2.13-2.13-2.13h-8.52c-1.17,0-2.13,.95-2.13,2.13,0,1.01-.82,1.83-1.83,1.83s-1.83-.82-1.83-1.83c0-3.2,2.59-5.79,5.79-5.79h8.52c3.2,0,5.79,2.59,5.79,5.79v13.77c0,3.2-2.59,5.79-5.79,5.79Z"/><path class="cls-4" d="M1003.67,648.14c0-2.18,1.79-3.96,3.96-3.96h8.52c2.18,0,3.96,1.79,3.96,3.96v13.77c0,2.18-1.79,3.96-3.96,3.96h-8.52c-2.18,0-3.96-1.79-3.96-3.96v-6.13"/><path class="cls-11" d="M1016.15,667.71h-8.52c-3.2,0-5.79-2.59-5.79-5.79v-6.13c0-1.01,.82-1.83,1.83-1.83s1.83,.82,1.83,1.83v6.13c0,1.17,.95,2.13,2.13,2.13h8.52c1.17,0,2.13-.95,2.13-2.13v-13.77c0-1.17-.95-2.13-2.13-2.13h-8.52c-1.17,0-2.13,.95-2.13,2.13,0,1.01-.82,1.83-1.83,1.83s-1.83-.82-1.83-1.83c0-3.2,2.59-5.79,5.79-5.79h8.52c3.2,0,5.79,2.59,5.79,5.79v13.77c0,3.2-2.59,5.79-5.79,5.79Z"/><path class="cls-4" d="M1031.14,648.14c0-2.18,1.79-3.96,3.96-3.96h8.52c2.18,0,3.96,1.79,3.96,3.96v13.77c0,2.18-1.79,3.96-3.96,3.96h-8.52c-2.18,0-3.96-1.79-3.96-3.96v-6.13"/><path class="cls-11" d="M1043.62,667.71h-8.52c-3.2,0-5.79-2.59-5.79-5.79v-6.13c0-1.01,.82-1.83,1.83-1.83s1.83,.82,1.83,1.83v6.13c0,1.17,.95,2.13,2.13,2.13h8.52c1.17,0,2.13-.95,2.13-2.13v-13.77c0-1.17-.95-2.13-2.13-2.13h-8.52c-1.17,0-2.13,.95-2.13,2.13,0,1.01-.82,1.83-1.83,1.83s-1.83-.82-1.83-1.83c0-3.2,2.59-5.79,5.79-5.79h8.52c3.2,0,5.79,2.59,5.79,5.79v13.77c0,3.2-2.59,5.79-5.79,5.79Z"/><path class="cls-4" d="M1003.67,682.04c0-2.18,1.79-3.96,3.96-3.96h8.52c2.18,0,3.96,1.79,3.96,3.96v13.77c0,2.18-1.79,3.96-3.96,3.96h-8.52c-2.18,0-3.96-1.79-3.96-3.96v-6.13"/><path class="cls-11" d="M1016.15,701.61h-8.52c-3.2,0-5.79-2.59-5.79-5.79v-6.13c0-1.01,.82-1.83,1.83-1.83s1.83,.82,1.83,1.83v6.13c0,1.17,.95,2.13,2.13,2.13h8.52c1.17,0,2.13-.95,2.13-2.13v-13.77c0-1.17-.95-2.13-2.13-2.13h-8.52c-1.17,0-2.13,.95-2.13,2.13,0,1.01-.82,1.83-1.83,1.83s-1.83-.82-1.83-1.83c0-3.2,2.59-5.81,5.79-5.81h8.52c3.2,0,5.79,2.59,5.79,5.81v13.77c0,3.2-2.59,5.79-5.79,5.79Z"/><path class="cls-4" d="M1030.09,682.04c0-2.18,1.79-3.96,3.96-3.96h8.52c2.18,0,3.96,1.79,3.96,3.96v13.77c0,2.18-1.79,3.96-3.96,3.96h-8.52c-2.18,0-3.96-1.79-3.96-3.96v-6.13"/><path class="cls-11" d="M1042.57,701.61h-8.5c-3.2,0-5.81-2.59-5.81-5.79v-6.13c0-1.01,.82-1.83,1.83-1.83s1.83,.82,1.83,1.83v6.13c0,1.17,.95,2.13,2.13,2.13h8.5c1.17,0,2.13-.95,2.13-2.13v-13.77c0-1.17-.95-2.13-2.13-2.13h-8.5c-1.17,0-2.13,.95-2.13,2.13,0,1.01-.82,1.83-1.83,1.83s-1.83-.82-1.83-1.83c0-3.2,2.59-5.81,5.81-5.81h8.5c3.2,0,5.81,2.59,5.81,5.81v13.77c0,3.2-2.59,5.79-5.81,5.79Z"/></g><g><rect class="cls-6" x="1173.06" y="610.77" width="15.5" height="21.23"/><rect class="cls-25" x="1175.05" y="612.75" width="11.52" height="17.24"/><rect class="cls-6" x="1201" y="610.77" width="15.5" height="21.23"/><rect class="cls-25" x="1202.98" y="612.75" width="11.52" height="17.24"/><rect class="cls-6" x="1173.06" y="644.42" width="15.5" height="21.23"/><rect class="cls-25" x="1175.05" y="646.41" width="11.52" height="17.24"/><rect class="cls-6" x="1201" y="644.42" width="15.5" height="21.23"/><rect class="cls-25" x="1202.98" y="646.41" width="11.52" height="17.24"/><path class="cls-4" d="M1216.41,695.8c0,2.18-1.79,3.96-3.96,3.96h-8.52c-2.18,0-3.96-1.79-3.96-3.96v-13.77c0-2.18,1.79-3.96,3.96-3.96h8.52c2.18,0,3.96,1.79,3.96,3.96v6.13"/><path class="cls-11" d="M1212.44,701.61h-8.52c-3.2,0-5.79-2.59-5.79-5.79v-13.77c0-3.2,2.59-5.81,5.79-5.81h8.52c3.2,0,5.79,2.59,5.79,5.81v6.13c0,1.01-.82,1.83-1.83,1.83s-1.83-.82-1.83-1.83v-6.13c0-1.17-.95-2.13-2.13-2.13h-8.52c-1.17,0-2.13,.95-2.13,2.13v13.77c0,1.17,.95,2.13,2.13,2.13h8.52c1.17,0,2.13-.95,2.13-2.13,0-1.01,.82-1.83,1.83-1.83s1.83,.82,1.83,1.83c0,3.2-2.59,5.79-5.79,5.79Z"/><path class="cls-4" d="M1188.94,695.8c0,2.18-1.79,3.96-3.96,3.96h-8.52c-2.18,0-3.96-1.79-3.96-3.96v-13.77c0-2.18,1.79-3.96,3.96-3.96h8.52c2.18,0,3.96,1.79,3.96,3.96v6.13"/><path class="cls-11" d="M1184.97,701.61h-8.5c-3.2,0-5.81-2.59-5.81-5.79v-13.77c0-3.2,2.59-5.81,5.81-5.81h8.5c3.2,0,5.81,2.59,5.81,5.81v6.13c0,1.01-.82,1.83-1.83,1.83s-1.83-.82-1.83-1.83v-6.13c0-1.17-.95-2.13-2.13-2.13h-8.5c-1.17,0-2.13,.95-2.13,2.13v13.77c0,1.17,.95,2.13,2.13,2.13h8.5c1.17,0,2.13-.95,2.13-2.13,0-1.01,.82-1.83,1.83-1.83s1.83,.82,1.83,1.83c0,3.2-2.59,5.79-5.81,5.79Z"/><path class="cls-4" d="M1216.41,661.92c0,2.18-1.79,3.96-3.96,3.96h-8.52c-2.18,0-3.96-1.79-3.96-3.96v-13.77c0-2.18,1.79-3.96,3.96-3.96h8.52c2.18,0,3.96,1.79,3.96,3.96v6.13"/><path class="cls-11" d="M1212.44,667.71h-8.52c-3.2,0-5.79-2.59-5.79-5.79v-13.77c0-3.2,2.59-5.79,5.79-5.79h8.52c3.2,0,5.79,2.59,5.79,5.79v6.13c0,1.01-.82,1.83-1.83,1.83s-1.83-.82-1.83-1.83v-6.13c0-1.17-.95-2.13-2.13-2.13h-8.52c-1.17,0-2.13,.95-2.13,2.13v13.77c0,1.17,.95,2.13,2.13,2.13h8.52c1.17,0,2.13-.95,2.13-2.13,0-1.01,.82-1.83,1.83-1.83s1.83,.82,1.83,1.83c0,3.2-2.59,5.79-5.79,5.79Z"/><path class="cls-4" d="M1188.94,661.92c0,2.18-1.79,3.96-3.96,3.96h-8.52c-2.18,0-3.96-1.79-3.96-3.96v-13.77c0-2.18,1.79-3.96,3.96-3.96h8.52c2.18,0,3.96,1.79,3.96,3.96v6.13"/><path class="cls-11" d="M1184.97,667.71h-8.5c-3.2,0-5.81-2.59-5.81-5.79v-13.77c0-3.2,2.59-5.79,5.81-5.79h8.5c3.2,0,5.81,2.59,5.81,5.79v6.13c0,1.01-.82,1.83-1.83,1.83s-1.83-.82-1.83-1.83v-6.13c0-1.17-.95-2.13-2.13-2.13h-8.5c-1.17,0-2.13,.95-2.13,2.13v13.77c0,1.17,.95,2.13,2.13,2.13h8.5c1.17,0,2.13-.95,2.13-2.13,0-1.01,.82-1.83,1.83-1.83s1.83,.82,1.83,1.83c0,3.2-2.59,5.79-5.81,5.79Z"/><path class="cls-4" d="M1216.41,628.03c0,2.18-1.79,3.96-3.96,3.96h-8.52c-2.18,0-3.96-1.79-3.96-3.96v-13.77c0-2.18,1.79-3.96,3.96-3.96h8.52c2.18,0,3.96,1.79,3.96,3.96v6.13"/><path class="cls-11" d="M1212.44,633.83h-8.52c-3.2,0-5.79-2.59-5.79-5.79v-13.77c0-3.2,2.59-5.79,5.79-5.79h8.52c3.2,0,5.79,2.59,5.79,5.79v6.13c0,1.01-.82,1.83-1.83,1.83s-1.83-.82-1.83-1.83v-6.13c0-1.17-.95-2.13-2.13-2.13h-8.52c-1.17,0-2.13,.95-2.13,2.13v13.77c0,1.17,.95,2.13,2.13,2.13h8.52c1.17,0,2.13-.95,2.13-2.13,0-1.01,.82-1.83,1.83-1.83s1.83,.82,1.83,1.83c0,3.2-2.59,5.79-5.79,5.79Z"/><path class="cls-4" d="M1188.94,628.03c0,2.18-1.79,3.96-3.96,3.96h-8.52c-2.18,0-3.96-1.79-3.96-3.96v-13.77c0-2.18,1.79-3.96,3.96-3.96h8.52c2.18,0,3.96,1.79,3.96,3.96v6.13"/><path class="cls-11" d="M1184.97,633.83h-8.5c-3.2,0-5.81-2.59-5.81-5.79v-13.77c0-3.2,2.59-5.79,5.81-5.79h8.5c3.2,0,5.81,2.59,5.81,5.79v6.13c0,1.01-.82,1.83-1.83,1.83s-1.83-.82-1.83-1.83v-6.13c0-1.17-.95-2.13-2.13-2.13h-8.5c-1.17,0-2.13,.95-2.13,2.13v13.77c0,1.17,.95,2.13,2.13,2.13h8.5c1.17,0,2.13-.95,2.13-2.13,0-1.01,.82-1.83,1.83-1.83s1.83,.82,1.83,1.83c0,3.2-2.59,5.79-5.81,5.79Z"/></g><g><path class="cls-3" d="M1110.25,582.78c10.29,0,18.65,8.34,18.65,18.65s-8.34,18.65-18.65,18.65-18.65-8.34-18.65-18.65,8.36-18.65,18.65-18.65"/><path class="cls-5" d="M1110.25,588.16c7.33,0,13.27,5.94,13.27,13.27s-5.94,13.27-13.27,13.27-13.27-5.94-13.27-13.27,5.94-13.27,13.27-13.27"/><path class="cls-13" d="M1110.06,601.59c-.56-.43-.66-1.23-.23-1.79l5.22-6.48c.43-.54,1.22-.65,1.77-.23h0c.56,.43,.66,1.23,.23,1.79l-5.22,6.48c-.43,.54-1.22,.65-1.77,.22h0Z"/><path class="cls-15" d="M1119.17,599.01c-.25-.97-1.25-1.55-2.23-1.29l-6.01,1.61c-.76-.26-1.64-.06-2.21,.53-.41,.41-.65,.95-.65,1.54s.22,1.13,.65,1.54c.41,.41,.95,.65,1.54,.65s1.13-.22,1.54-.65l.09-.09,6-1.61c.97-.25,1.55-1.25,1.29-2.21h0Z"/></g><path class="cls-15" d="M1143.48,699.78c0-1.07-.86-1.94-1.94-1.94s-1.94,.86-1.94,1.94v15.6h3.87v-15.6Z"/><path class="cls-15" d="M1080.46,671.22c0-1.07-.86-1.94-1.94-1.94s-1.94,.86-1.94,1.94v44.16h3.87v-44.16Z"/><path class="cls-15" d="M1110.15,642.35c-1.07,0-1.94,.86-1.94,1.94v71.09h3.87v-71.09c0-1.07-.86-1.94-1.94-1.94Z"/><line class="cls-1" x1="1141.54" y1="672.57" x2="1141.54" y2="680.04"/><path class="cls-1" d="M1078.65,654.61c0-10.2,8.34-18.55,18.55-18.55h25.92c10.2,0,18.55,8.34,18.55,18.55"/></g><path class="cls-2" d="M1227.97,715.36c.66,0,1.19-.53,1.19-1.19v-118.47c0-.66,.53-1.19,1.19-1.19h0c.66,0,1.19-.53,1.19-1.19v-1.07c0-.66-.53-1.19-1.19-1.19"/><path class="cls-2" d="M1080.46,584.75c-.13,.12-7.83,.19-8.02,.19h-12.95c-.4,0-.72,.32-.72,.72v5.41h-70c-.66,0-1.19,.53-1.19,1.19v1.07c0,.66,.53,1.19,1.19,1.19s1.19,.53,1.19,1.19v118.49c0,.66,.53,1.19,1.19,1.19h56.41"/><path class="cls-7" d="M1107.15,538.01c-1.01,0-1.83-.82-1.83-1.83v-8.2c0-4.56,3.71-8.25,8.25-8.25,1.01,0,1.83,.82,1.83,1.83s-.82,1.83-1.83,1.83c-2.54,0-4.59,2.07-4.59,4.59v8.2c0,1.01-.82,1.83-1.83,1.83Z"/><path class="cls-7" d="M1133.52,544.45h-9.97c-1.01,0-1.83-.82-1.83-1.83s.82-1.83,1.83-1.83h9.97c2.54,0,4.59-2.07,4.59-4.59v-8.2c0-2.54-2.07-4.59-4.59-4.59-1.01,0-1.83-.82-1.83-1.83s.82-1.83,1.83-1.83c4.56,0,8.25,3.71,8.25,8.25v8.2c0,4.56-3.71,8.25-8.25,8.25Z"/></g><circle class="cls-15" cx="1232.81" cy="543.4" r="3.06"/><path class="cls-11" d="M989.86,555.73c1.01-1.64,1.5-3.2,1.29-4.81h0c-.21-1.61-1.07-3.01-2.62-4.44-.65-.73-.78-1.82,.07-2.61,.73-.65,1.54-.75,2.3-.16,1.79,1.13,3.47,1.47,4.81,1.29,1.61-.21,3.01-1.07,4.32-2.48,.7-.91,1.94-.94,2.57-.21,.76,.59,.75,1.54,.32,2.42-1.01,1.64-1.5,3.2-1.29,4.81h0c.21,1.61,1.07,3.01,2.62,4.44,.65,.73,.78,1.82-.07,2.61-.73,.65-1.54,.75-2.3,.16-1.79-1.13-3.47-1.47-4.81-1.29-1.61,.21-3.01,1.07-4.32,2.48-.73,.65-1.82,.78-2.73,.09-.48-.62-.63-1.7-.16-2.3Z"/><path class="cls-21" d="M1198.07,527.16l-.95-7.26c-.18-1.35,.76-2.57,2.21-2.89l6.99-.91c1.35-.18,2.57,.76,2.89,2.21l.91,6.99c.18,1.35-.76,2.57-2.21,2.89l-6.99,.91c-1.47,.32-2.68-.6-2.86-1.95h.01Z"/><path class="cls-17" d="M1062.93,763.55l-5.88,.76c-1.08,.15-2.07-.62-2.35-1.8l-.75-5.66c-.15-1.08,.62-2.07,1.8-2.35l5.66-.75c1.08-.15,2.07,.62,2.35,1.8l.75,5.66c.26,1.19-.5,2.17-1.58,2.32h0Z"/><circle class="cls-4" cx="1159.87" cy="746.05" r="3.06"/></g></g><circle class="cls-13" cx="81.98" cy="623.18" r="6.22" transform="translate(-416.64 240.49) rotate(-45)"/><path class="cls-17" d="M1135.38,16.89c-2.72,.27-4.88,1.08-6.52,2.72h0c-1.62,1.62-2.45,3.8-2.72,6.79-.27,1.35-1.35,2.45-2.99,2.18-1.35-.27-2.18-1.08-2.18-2.45-.27-2.99-1.35-5.15-2.72-6.52-1.62-1.62-3.8-2.45-6.52-2.72-1.62,0-2.72-1.35-2.45-2.72,0-1.35,1.08-2.18,2.45-2.45,2.72-.27,4.88-1.08,6.52-2.72h0c1.62-1.62,2.45-3.8,2.72-6.79,.27-1.35,1.35-2.45,2.99-2.18,1.35,.27,2.18,1.08,2.18,2.45,.27,2.99,1.35,5.15,2.72,6.52,1.62,1.62,3.8,2.45,6.52,2.72,1.35,.27,2.45,1.35,2.45,2.99-.27,1.08-1.35,2.18-2.45,2.18h0Z"/><path class="cls-17" d="M98.23,202.17h-12.03c-2.23,0-4.02-1.79-4.23-4.23v-11.57c0-2.23,1.79-4.02,4.23-4.23h11.57c2.23,0,4.02,1.79,4.23,4.23v11.57c.23,2.46-1.56,4.25-3.79,4.25l.02-.02Z"/><circle class="cls-7" cx="1340.61" cy="366.61" r="5.8"/><circle class="cls-7" cx="912.45" cy="435.37" r="5.8"/><circle class="cls-7" cx="617.57" cy="59.76" r="5.8"/><circle class="cls-7" cx="1080.46" cy="194.67" r="5.8"/><path class="cls-12" d="M402.25,605.77c4.94,0,8.95,4,8.95,8.93s-4.01,8.93-8.95,8.93-8.95-4-8.95-8.93,4.01-8.93,8.95-8.93"/><circle class="cls-23" cx="236.51" cy="704.3" r="5.8"/><path class="cls-10" d="M1482.25,428.75c-.36-3.63-1.44-6.52-3.63-8.71h0c-2.16-2.16-5.08-3.27-9.07-3.63-1.8-.36-3.27-1.8-2.91-3.99,.36-1.8,1.44-2.91,3.27-2.91,3.99-.36,6.88-1.8,8.71-3.63,2.16-2.16,3.27-5.08,3.63-8.71,0-2.16,1.8-3.63,3.63-3.27,1.8,0,2.91,1.44,3.27,3.27,.36,3.63,1.44,6.52,3.63,8.71h0c2.16,2.16,5.08,3.27,9.07,3.63,1.8,.36,3.27,1.8,2.91,3.99-.36,1.8-1.44,2.91-3.27,2.91-3.99,.36-6.88,1.8-8.71,3.63-2.16,2.16-3.27,5.08-3.63,8.71-.36,1.8-1.8,3.27-3.99,3.27-1.44-.36-2.91-1.8-2.91-3.27Z"/><path class="cls-10" d="M72.31,826.45c-.36-3.63-1.44-6.52-3.63-8.71h0c-2.16-2.16-5.08-3.27-9.07-3.63-1.8-.36-3.27-1.8-2.91-3.99,.36-1.8,1.44-2.91,3.27-2.91,3.99-.36,6.88-1.8,8.71-3.63,2.16-2.16,3.27-5.08,3.63-8.71,0-2.16,1.8-3.63,3.63-3.27,1.8,0,2.91,1.44,3.27,3.27,.36,3.63,1.44,6.52,3.63,8.71h0c2.16,2.16,5.08,3.27,9.07,3.63,1.8,.36,3.27,1.8,2.91,3.99-.36,1.8-1.44,2.91-3.27,2.91-3.99,.36-6.88,1.8-8.71,3.63-2.16,2.16-3.27,5.08-3.63,8.71-.36,1.8-1.8,3.27-3.99,3.27-1.44-.36-2.91-1.8-2.91-3.27Z"/><path class="cls-19" d="M1388.22,246.63l-9.79,9.79c-1.8,1.8-4.71,1.8-6.88,0l-9.43-9.43c-1.8-1.8-1.8-4.71,0-6.88l9.43-9.43c1.8-1.8,4.71-1.8,6.88,0l9.43,9.43c2.16,1.8,2.16,4.71,.36,6.52Z"/><path class="cls-19" d="M1371.35,732.67l-7.93,7.93c-1.47,1.47-3.83,1.47-5.57,0l-7.63-7.63c-1.47-1.47-1.47-3.83,0-5.57l7.63-7.63c1.47-1.47,3.83-1.47,5.57,0l7.63,7.63c1.77,1.47,1.77,3.83,.31,5.3v-.03Z"/><path class="cls-19" d="M604.49,175.58l-7.93,7.93c-1.47,1.47-3.83,1.47-5.57,0l-7.63-7.63c-1.47-1.47-1.47-3.83,0-5.57l7.63-7.63c1.47-1.47,3.83-1.47,5.57,0l7.63,7.63c1.77,1.47,1.77,3.83,.31,5.3v-.03Z"/></g></svg>